<?xml version="1.0" standalone="no"?>
<!DOCTYPE svg PUBLIC "-//W3C//DTD SVG 1.1//EN" "http://www.w3.org/Graphics/SVG/1.1/DTD/svg11.dtd" >
<svg xmlns="http://www.w3.org/2000/svg" xmlns:xlink="http://www.w3.org/1999/xlink" version="1.1">
<metadata>
Created by FontForge 20200427 at Tue Dec  6 18:41:43 2011
 By www
</metadata>
<defs>
<font id="GHEAKoryunW01-Regular" horiz-adv-x="482" >
  <font-face 
    font-family="GHEAKoryunW01-Regular"
    font-weight="400"
    font-stretch="normal"
    units-per-em="1000"
    panose-1="2 0 5 6 0 0 0 2 0 4"
    ascent="747"
    descent="-253"
    x-height="495"
    cap-height="685"
    bbox="-149 -277 1025 957.174"
    underline-thickness="50"
    underline-position="-150"
    unicode-range="U+0020-2122"
  />
<missing-glyph horiz-adv-x="0" 
 />
    <glyph glyph-name=".notdef" horiz-adv-x="0" 
 />
    <glyph glyph-name="glyph1" horiz-adv-x="0" 
 />
    <glyph glyph-name="glyph2" horiz-adv-x="0" 
 />
    <glyph glyph-name="space" unicode=" " horiz-adv-x="298" 
 />
    <glyph glyph-name="exclam" unicode="!" horiz-adv-x="287" 
d="M145 -11q-23 0 -39 15.5t-16 38.5t16 39t39 16t38.5 -16t15.5 -39t-15.5 -38.5t-38.5 -15.5zM168 159h-49l-22 486q-1 14 3.5 17.5t12.5 3.5h61q8 0 13 -3.5t3 -17.5z" />
    <glyph glyph-name="quotedbl" unicode="&#x22;" horiz-adv-x="331" 
d="M253 513h-41l-21 161q-4 25 9 25h58q10 0 14.5 -3.5t1.5 -21.5zM115 513h-41l-21 161q-2 14 -0.5 19.5t9.5 5.5h59q9 0 13.5 -3.5t1.5 -21.5z" />
    <glyph glyph-name="numbersign" unicode="#" horiz-adv-x="534" 
d="M304 271l37 152h-121l-36 -152h120zM295 28h-49l46 192h-121l-45 -192h-49l46 192h-105l13 51h104l38 152h-106l13 51h104l47 194h48l-47 -194h121l46 194h49l-47 -194h114l-13 -51h-113l-36 -152h113l-13 -51h-113z" />
    <glyph glyph-name="dollar" unicode="$" horiz-adv-x="513" 
d="M228 600q-40 -5 -66 -33t-26 -67q0 -22 7 -38.5t19.5 -29t29.5 -22t36 -17.5v207zM286 57q35 5 62 28t31 65q2 27 -4.5 47t-19.5 35t-31 26t-38 20v-221zM286 -106h-58v96q-66 2 -114 24t-77 52l-11 11l44 67h5q3 -5 14 -19t30.5 -29.5t47 -28.5t61.5 -15v248
q-33 11 -65.5 24t-58.5 34t-42 52t-16 79q0 21 9.5 48.5t31 54t56 46.5t85.5 25v90h58v-89q52 -5 90.5 -25.5t67.5 -48.5l10 -11l-43 -67h-5q-4 6 -12.5 19t-23.5 27.5t-35.5 27t-48.5 16.5v-232q33 -11 66 -25t59.5 -35t43 -52.5t16.5 -78.5q0 -39 -14 -71t-38.5 -56
t-58.5 -39t-74 -21v-98z" />
    <glyph glyph-name="percent" unicode="%" horiz-adv-x="633" 
d="M469 -18q-23 0 -46 10t-42 30.5t-31 50.5t-12 71q0 40 12 70.5t31 51t42 30.5t46 10t46.5 -10t42.5 -30.5t31 -51t12 -70.5q0 -41 -12 -71t-31 -50.5t-42.5 -30.5t-46.5 -10zM469 27q12 0 23 5.5t20 19t14.5 36t5.5 56.5q0 33 -5.5 55.5t-14.5 36t-20 19.5t-23 6t-23 -6
t-20 -19.5t-14.5 -36t-5.5 -55.5q0 -34 5.5 -56.5t14.5 -36t20 -19t23 -5.5zM97 -32h-61l510 783h63zM163 410q-23 0 -46.5 10t-42 30.5t-30.5 50.5t-12 71q0 40 12 70.5t30.5 51t42 30.5t46.5 10t46.5 -10t42 -30.5t30.5 -51t12 -70.5q0 -41 -12 -71t-30.5 -50.5t-42 -30.5
t-46.5 -10zM163 455q12 0 23 5.5t20 19t14.5 36t5.5 56.5t-5.5 56.5t-14.5 36t-20 19t-23 5.5t-23.5 -5.5t-20.5 -19t-14.5 -36t-5.5 -56.5t5.5 -56.5t14.5 -36t20.5 -19t23.5 -5.5z" />
    <glyph glyph-name="ampersand" unicode="&#x26;" horiz-adv-x="747" 
d="M424 87q-30 32 -56 73t-47.5 84t-38 85t-27.5 76q-63 -42 -98.5 -91.5t-35.5 -115.5q0 -37 13 -66.5t36.5 -49.5t56 -29.5t71.5 -6.5q32 3 63 11.5t63 29.5zM314 484q44 29 68 62.5t24 78.5q-2 32 -15.5 46.5t-29.5 14.5q-22 0 -36.5 -13.5t-21.5 -37.5q-4 -12 -5.5 -26
t-0.5 -28q1 -21 5.5 -45t11.5 -52zM726 86q-18 -37 -45.5 -64.5t-66.5 -30.5q-12 -1 -24 -0.5t-23 3.5q-25 5 -51 17.5t-57 41.5q-54 -39 -112 -52t-110 -12q-41 1 -78 16.5t-66 42t-46 63t-17 78.5q0 43 15 79.5t42.5 68t66 59t85.5 53.5q-16 53 -18.5 83.5t-2.5 44.5
q0 39 13.5 69t34.5 50.5t47 31.5t52 11q53 0 85.5 -31.5t32.5 -81.5q0 -32 -12 -58.5t-32.5 -49.5t-48.5 -42.5t-60 -35.5q13 -42 30.5 -85t38 -83t42.5 -75.5t44 -62.5q30 34 49.5 69.5t31 69t16 64.5t4.5 55q0 29 -0.5 45t-1.5 24h75q-1 -11 -1.5 -21t-1 -20.5t-1.5 -22
t-2 -26.5q-3 -22 -10 -52t-22 -66t-40 -76t-63 -80q23 -25 43.5 -37.5t43.5 -13.5q24 0 43 14.5t42 51.5z" />
    <glyph glyph-name="quotesingle" unicode="'" horiz-adv-x="194" 
d="M115 513h-41l-21 161q-2 14 -0.5 19.5t9.5 5.5h59q9 0 13 -3.5t2 -21.5z" />
    <glyph glyph-name="parenleft" unicode="(" horiz-adv-x="321" 
d="M234 -277q-38 45 -72 102.5t-60 124t-41.5 139.5t-15.5 149t15 149t41 139.5t60.5 124t72.5 102.5l33 -24q-24 -41 -47.5 -93.5t-42.5 -115t-30.5 -133.5t-11.5 -149t11.5 -149t30.5 -133.5t42.5 -115t47.5 -93.5z" />
    <glyph glyph-name="parenright" unicode=")" horiz-adv-x="321" 
d="M40 -253q24 41 47.5 93.5t42.5 115t30.5 133.5t11.5 149t-11.5 149t-30.5 133.5t-42.5 115t-47.5 93.5l33 24q38 -45 72.5 -102.5t60.5 -124t41 -139.5t15 -149t-15.5 -149t-41.5 -139.5t-60.5 -124t-71.5 -102.5z" />
    <glyph glyph-name="asterisk" unicode="*" horiz-adv-x="438" 
d="M218 569l-54 -114q-17 5 -34 17t-25 26l93 86l-125 16q-2 17 5 38t18 32l111 -63l-24 124q17 8 35.5 8t35.5 -8l-23 -124l110 64q11 -16 18 -37t5 -35l-127 -16l94 -85q-10 -15 -27.5 -27.5t-32.5 -15.5z" />
    <glyph glyph-name="plus" unicode="+" horiz-adv-x="512" 
d="M284 -1h-56v214h-205v51h205v204h56v-204h205v-51h-205v-214z" />
    <glyph glyph-name="comma" unicode="," horiz-adv-x="306" 
d="M62 -162q35 27 52.5 53.5t17.5 46.5q0 15 -8 27.5t-16.5 24.5t-15 24.5t-3.5 27.5q3 17 16.5 27.5t30.5 10.5q19 0 33 -10t23.5 -25t14 -33t4.5 -33q0 -51 -35 -94t-91 -76z" />
    <glyph glyph-name="hyphen" unicode="-" horiz-adv-x="422" 
d="M397 216h-370v50h370v-50z" />
    <glyph glyph-name="period" unicode="." horiz-adv-x="284" 
d="M140 -11q-23 0 -39 15.5t-16 38.5t16 39t39 16t38.5 -16t15.5 -39t-15.5 -38.5t-38.5 -15.5z" />
    <glyph glyph-name="slash" unicode="/" horiz-adv-x="528" 
d="M51 -32h-63l485 783h64z" />
    <glyph glyph-name="zero" unicode="0" horiz-adv-x="571" 
d="M285 54q48 0 77.5 22.5t45 64.5t21 101t5.5 132q0 66 -5.5 123.5t-21 100.5t-45 68t-77.5 25t-77.5 -22t-45 -63.5t-21 -100t-5.5 -131.5t5.5 -132t21 -101t45 -64.5t77.5 -22.5zM285 -11q-65 0 -111.5 28.5t-76 79.5t-43.5 121.5t-14 155.5t14 155.5t43.5 120.5t76 78
t111.5 28t111.5 -28t76 -78t43.5 -120.5t14 -155.5t-14 -155.5t-43.5 -121.5t-76 -79.5t-111.5 -28.5z" />
    <glyph glyph-name="one" unicode="1" horiz-adv-x="358" 
d="M256 0h-92v556q-14 -7 -32.5 -14t-38 -13t-36.5 -11t-27 -6l-8 56q51 18 83.5 38.5t53 43.5t32 48.5t19.5 52.5l46 -7v-744z" />
    <glyph glyph-name="two" unicode="2" horiz-adv-x="529" 
d="M485 0h-459l-10 76q111 78 180 137t107 110t51 100.5t13 107.5q0 78 -40 117.5t-102 39.5q-42 0 -79.5 -27t-59.5 -84h-5l-60 78q23 29 49.5 48t54 30.5t53.5 16.5t47 5q63 0 108 -19t74 -49.5t42.5 -70t13.5 -81.5q0 -66 -19 -123.5t-58.5 -111t-100 -105.5t-142.5 -108
q0 -1 0.5 -2t0.5 -2h343z" />
    <glyph glyph-name="three" unicode="3" horiz-adv-x="549" 
d="M331 408q46 -5 79.5 -23t55.5 -44.5t32.5 -59.5t10.5 -67q0 -36 -11.5 -75.5t-40.5 -73t-78.5 -55t-125.5 -21.5q-44 0 -82.5 12.5t-69.5 34t-53.5 49.5t-34.5 59l58 31q18 -32 40 -54.5t46 -36t47.5 -19.5t44.5 -6q43 0 74 13.5t51 35t29.5 49t9.5 55.5q0 33 -10 62
t-31.5 50.5t-55 34.5t-79.5 13q-11 0 -27 -2.5t-27 -7.5v83q10 -3 24 -4.5t25 -1.5q78 0 116.5 35.5t38.5 96.5q0 22 -8.5 43.5t-25 37.5t-41 26t-57.5 10q-41 0 -83 -23.5t-68 -79.5h-5l-60 78q24 27 52 45t56.5 28.5t56 15t48.5 4.5q66 0 109.5 -17.5t70 -44.5t37.5 -59
t11 -60q0 -29 -8 -57t-25.5 -50.5t-46 -38t-69.5 -21.5z" />
    <glyph glyph-name="four" unicode="4" horiz-adv-x="584" 
d="M455 0h-90v203h-336l-14 21l370 528l70 -6v-470h128v-73h-128v-203zM365 276v349h-3l-224 -343l4 -6h223z" />
    <glyph glyph-name="five" unicode="5" horiz-adv-x="542" 
d="M71 175q18 -32 39.5 -54.5t45 -36t47 -19.5t44.5 -6q48 0 79 18t49 44.5t25 56.5t7 54q0 46 -12.5 80t-34.5 56.5t-52.5 34t-65.5 11.5q-14 0 -32.5 -3t-39.5 -10.5t-43 -20t-43 -32.5l-28 18l29 367l12 11h367l2 -79h-311q0 -1 -2 -3l-22 -221q24 20 61 33t78 13
q48 0 90.5 -16t74 -46.5t49.5 -76t18 -105.5q0 -38 -12 -82.5t-40.5 -82.5t-77 -63.5t-120.5 -25.5q-44 0 -82.5 12.5t-69.5 34t-53 49.5t-34 59z" />
    <glyph glyph-name="six" unicode="6" horiz-adv-x="560" 
d="M152 353q-8 -29 -12 -57.5t-4 -60.5q0 -53 14.5 -88t36 -55.5t48 -29t50.5 -8.5q25 0 50.5 9t46 29t33 51.5t12.5 76.5q0 51 -15.5 84t-37 52t-45.5 27t-41 9q-11 0 -22 -0.5t-22 -2.5q-23 -3 -47.5 -12t-44.5 -24zM463 700q-50 -18 -95 -46t-83 -63.5t-67.5 -77
t-48.5 -87.5q35 21 67.5 30t64.5 9q42 0 82 -14t71 -42.5t50 -71t19 -99.5q0 -61 -20 -107.5t-53 -78t-76.5 -47.5t-90.5 -16q-63 0 -109 21.5t-75.5 57.5t-44 82t-14.5 95q0 71 23 147t71.5 145.5t123.5 127t180 91.5z" />
    <glyph glyph-name="seven" unicode="7" horiz-adv-x="524" 
d="M88 0v6q1 2 17.5 42t52.5 120.5t94.5 202.5t145.5 287l-5 5h-373l3 82h466l16 -16q-39 -89 -76.5 -173.5t-75.5 -171.5t-75.5 -181t-76.5 -203h-113z" />
    <glyph glyph-name="eight" unicode="8" horiz-adv-x="575" 
d="M281 365q-65 -30 -103.5 -72t-38.5 -103q0 -36 12.5 -62t34 -43t49.5 -25t59 -8t59 7.5t48 22.5t32 37.5t12 52.5q0 33 -12.5 59.5t-34.5 49.5t-52 43.5t-65 40.5zM307 445q51 24 76.5 58t25.5 85q0 29 -11 50t-27.5 34.5t-36 20t-37.5 6.5q-45 0 -78 -29t-33 -80
q0 -27 8 -48t23 -37.5t37.5 -30.5t52.5 -29zM365 410q35 -20 66 -42t54 -48t36.5 -57.5t13.5 -69.5q0 -50 -20.5 -88.5t-54.5 -64t-77.5 -38.5t-88.5 -13q-50 0 -95.5 13.5t-81 38.5t-56.5 61t-21 81q0 72 50 130t132 90q-38 22 -62.5 40.5t-38.5 38t-19.5 41.5t-5.5 51
q0 37 14 70t40.5 58t64 39.5t84.5 14.5q44 0 80.5 -13.5t63 -37t41 -55t14.5 -66.5q0 -64 -30.5 -105.5t-102.5 -68.5z" />
    <glyph glyph-name="nine" unicode="9" horiz-adv-x="563" 
d="M411 392q8 29 12 57.5t4 61.5q0 52 -14.5 87t-36 55.5t-48 29t-50.5 8.5q-25 0 -50 -9t-45.5 -29t-33 -51.5t-12.5 -75.5q0 -52 15 -85t37 -52t45.5 -26.5t41.5 -8.5t43 2q23 3 47.5 12t44.5 24zM100 46q50 18 95.5 45.5t83 63t67 77t48.5 87.5q-35 -21 -67.5 -30
t-64.5 -9q-42 0 -82 14t-71 42.5t-50 71.5t-19 100q0 60 20 106.5t53 78t76.5 47.5t90.5 16q63 0 109 -21.5t75.5 -57.5t44 -82t14.5 -95q0 -71 -23 -146.5t-71.5 -145.5t-123.5 -127.5t-180 -91.5z" />
    <glyph glyph-name="colon" unicode=":" horiz-adv-x="283" 
d="M140 395q-23 0 -39 15t-16 38t16 39t39 16t38.5 -16t15.5 -39t-15.5 -38t-38.5 -15zM140 -11q-23 0 -39 15.5t-16 38.5t16 39t39 16t38.5 -16t15.5 -39t-15.5 -38.5t-38.5 -15.5z" />
    <glyph glyph-name="semicolon" unicode=";" horiz-adv-x="283" 
d="M62 -162q35 27 52.5 53.5t17.5 46.5q0 15 -8 27.5t-16.5 24.5t-15 24.5t-3.5 27.5q3 17 16.5 27.5t30.5 10.5q19 0 33 -10t23.5 -25t14 -33t4.5 -33q0 -51 -35 -94t-91 -76zM140 395q-23 0 -39 15t-16 38t16 39t39 16t38.5 -16t15.5 -39t-15.5 -38t-38.5 -15z" />
    <glyph glyph-name="less" unicode="&#x3c;" horiz-adv-x="529" 
d="M506 0l-483 226v28l483 226v-58l-405 -182l405 -182v-58z" />
    <glyph glyph-name="equal" unicode="=" horiz-adv-x="519" 
d="M496 149h-473v51h473v-51zM496 274h-473v51h473v-51z" />
    <glyph glyph-name="greater" unicode="&#x3e;" horiz-adv-x="529" 
d="M506 226l-483 -226v58l404 182l-404 182v58l483 -226v-28z" />
    <glyph glyph-name="question" unicode="?" horiz-adv-x="392" 
d="M165 -10q-23 0 -38 15t-15 38t15 38.5t38 15.5t38.5 -15.5t15.5 -38.5t-15.5 -38t-38.5 -15zM193 192h-60q-1 52 21 91.5t48.5 75t48.5 71.5t22 82t-24 71t-62 25q-26 0 -50 -16t-39 -51l-4 -1l-55 24q18 32 37.5 51t40.5 29.5t43 14t43 3.5q25 0 51.5 -9t48.5 -27
t35.5 -46t13.5 -66q0 -34 -11.5 -63.5t-29.5 -55.5t-38 -50.5t-38 -48.5t-29.5 -49t-11.5 -52z" />
    <glyph glyph-name="at" unicode="@" horiz-adv-x="794" 
d="M497 481q-11 8 -26 12.5t-29 4.5q-24 0 -49 -10.5t-45.5 -31.5t-33.5 -52.5t-13 -73.5q0 -22 6.5 -37t16.5 -24t23 -13t27 -4q20 0 41.5 10t40.5 29zM695 61q-25 -19 -57.5 -34.5t-68 -26t-71.5 -16t-68 -5.5q-74 0 -132 17t-102.5 45.5t-75.5 65.5t-51 77.5t-29 81
t-9 75.5q0 87 31 157t83.5 119.5t122 76.5t147.5 27q74 0 137 -21.5t109.5 -60t73 -92t26.5 -117.5q0 -65 -20.5 -109.5t-56.5 -72.5t-85.5 -40t-106.5 -12q-20 0 -32.5 9.5t-9.5 31.5q-1 6 0 12t3 10q-26 -29 -56 -39.5t-50 -10.5q-47 0 -77 30t-30 84q0 45 16.5 83.5
t43 67t60 45t67.5 16.5q15 0 37 -4.5t39 -18.5l13 13h48l-46 -210q-3 -16 -6.5 -31t-5.5 -31q0 -11 15 -12q5 -2 12.5 -1.5t15.5 2.5q34 2 64.5 14t53 34.5t36 56t13.5 78.5q0 55 -21.5 102t-61 82t-95 55t-123.5 20q-55 0 -111 -20t-101 -61.5t-73 -106t-28 -154.5
q0 -62 22.5 -120.5t64.5 -103.5t102.5 -72.5t137.5 -27.5q26 0 56 3.5t61.5 12t64 22.5t64.5 36z" />
    <glyph glyph-name="A" unicode="A" horiz-adv-x="544" 
d="M342 269l-82 246h-2l-83 -246h167zM534 0h-100l-70 206h-209l-70 -206h-75v5q4 6 14.5 35.5t27.5 77.5l197 567h44l209 -596q11 -32 18.5 -50t13.5 -34v-5z" />
    <glyph glyph-name="B" unicode="B" horiz-adv-x="553" 
d="M171 393h31q51 0 84.5 7.5t53 22.5t27.5 36.5t8 50.5q0 60 -42 88.5t-138 28.5h-24v-234zM171 64h38h41q46 0 78 10t52.5 27t29.5 40t9 50q0 29 -10.5 54.5t-33 44t-57 29t-81.5 10.5h-66v-265zM80 0v685h130q72 0 121.5 -13.5t80 -36.5t43.5 -53t13 -64q0 -58 -31 -99
t-91 -52q40 -3 71 -19t52.5 -40t32.5 -52.5t11 -56.5q0 -33 -11 -68t-39.5 -64.5t-78.5 -48t-128 -18.5h-176z" />
    <glyph glyph-name="C" unicode="C" horiz-adv-x="634" 
d="M630 188q-80 -199 -279 -199q-68 0 -125 24t-98.5 69t-64.5 109.5t-23 145.5q0 78 25 143.5t68.5 113.5t102.5 75t126 27q71 0 128 -23t97 -63l11 -11l-50 -63h-5q-4 5 -16.5 20.5t-35 32t-55.5 29.5t-77 13q-46 0 -86.5 -21t-71 -59t-48 -92t-17.5 -120q0 -63 17 -114.5
t47.5 -88t72 -57t91.5 -20.5q25 0 54 7t58 25t56 47.5t48 74.5z" />
    <glyph glyph-name="D" unicode="D" horiz-adv-x="655" 
d="M289 64q55 0 101 21.5t78 60t50 90.5t18 112q0 72 -20 124.5t-54.5 87t-79.5 51t-94 16.5h-117v-563h118zM80 0v685h210q66 0 127 -19.5t108.5 -60.5t75.5 -105t28 -153q0 -81 -26.5 -145.5t-72 -109.5t-105.5 -68.5t-126 -23.5h-219z" />
    <glyph glyph-name="E" unicode="E" horiz-adv-x="525" 
d="M80 0v685h390l10 -63h-309v-231h271v-62h-271v-266h337l-10 -63h-418z" />
    <glyph glyph-name="F" unicode="F" horiz-adv-x="498" 
d="M80 0v685h390l10 -63h-309v-231h271v-62h-271v-329h-91z" />
    <glyph glyph-name="G" unicode="G" horiz-adv-x="669" 
d="M513 285h-133l-10 61h232v-205q0 -16 1.5 -32t4.5 -25q-17 -17 -42.5 -33.5t-58 -30.5t-71.5 -22.5t-83 -8.5q-68 0 -125 24t-99 69t-65.5 109.5t-23.5 145.5q0 77 25 143t68.5 114t102.5 75t126 27q71 0 128 -23t97 -63l11 -11l-50 -63h-5q-4 5 -16.5 20.5t-35 32
t-55.5 29.5t-77 13q-46 0 -86.5 -21t-71 -59t-48 -92t-17.5 -120q0 -63 17 -115t48 -89.5t72.5 -58.5t91.5 -21q16 0 35.5 3t39.5 9t39 15.5t34 21.5v181z" />
    <glyph glyph-name="H" unicode="H" horiz-adv-x="690" 
d="M610 0h-92v329h-347v-329h-91v685h91v-294h347v294h92v-685z" />
    <glyph glyph-name="I" unicode="I" horiz-adv-x="269" 
d="M89 0v685h91v-685h-91z" />
    <glyph glyph-name="J" unicode="J" horiz-adv-x="356" 
d="M-1 32l47 69h7q8 -18 25 -27t31 -9q38 0 53.5 26.5t15.5 71.5q0 19 -2 38.5t-2 37.5v446h91v-418q0 -59 -6.5 -109.5t-24.5 -88t-51 -59t-86 -21.5q-20 0 -44 8.5t-41 24.5z" />
    <glyph glyph-name="K" unicode="K" horiz-adv-x="614" 
d="M478 0q-30 29 -111 110.5t-194 209.5h-2v-320h-91v685h91v-285h2l294 285h97v-4q-6 -5 -14 -11.5t-20 -17t-28 -26t-39 -37.5l-221 -214q103 -110 196 -206t161 -166v-3h-121z" />
    <glyph glyph-name="L" unicode="L" horiz-adv-x="510" 
d="M80 0v685h91v-622h322l-10 -63h-403z" />
    <glyph glyph-name="M" unicode="M" horiz-adv-x="794" 
d="M714 0h-92v494l-217 -494h-35l-214 512v-512h-77v592v29.5t-0.5 28.5t-1.5 22t-2 10v3h108l221 -504l219 504h93v-3q0 -1 -0.5 -12.5t-1 -26.5t-0.5 -30.5v-22.5v-590z" />
    <glyph glyph-name="N" unicode="N" horiz-adv-x="670" 
d="M590 0h-74l-360 557v-557h-76v518v48t-0.5 52t-1 43t-1.5 20v4h101l336 -508v508h76v-685z" />
    <glyph glyph-name="O" unicode="O" horiz-adv-x="710" 
d="M355 54q48 0 88 21t69.5 59t45.5 91.5t16 118.5q0 66 -16 119t-45.5 90.5t-69.5 57.5t-88 20t-88 -20t-69.5 -57.5t-45.5 -90.5t-16 -119q0 -65 16 -118.5t45.5 -91.5t69.5 -59t88 -21zM355 -11q-65 0 -122.5 26.5t-100.5 73.5t-67.5 112.5t-24.5 142.5q0 78 24.5 142.5
t67.5 111t100.5 72.5t122.5 26t122.5 -26t100 -72.5t67.5 -111t25 -142.5q0 -77 -25 -142.5t-67.5 -112.5t-100 -73.5t-122.5 -26.5z" />
    <glyph glyph-name="P" unicode="P" horiz-adv-x="538" 
d="M171 0h-91v685h138q141 0 210.5 -51t69.5 -151q0 -40 -14.5 -76.5t-42 -64t-68.5 -44t-94 -16.5q-28 0 -56.5 3t-51.5 9v-294zM171 627v-270q6 -3 17 -5t23.5 -3.5t24.5 -2.5t19 -1q41 0 70 12t47 31t26 43.5t8 50.5q0 81 -50.5 113t-140.5 32h-44z" />
    <glyph glyph-name="Q" unicode="Q" horiz-adv-x="705" 
d="M331 56l33 69l72 -49q30 12 55 37t43 60t28 78.5t10 92.5q0 66 -16.5 119t-45.5 90.5t-69.5 57.5t-88.5 20t-88 -20t-69.5 -57.5t-45.5 -90.5t-16 -119q0 -63 15 -114.5t42 -89t63 -59.5t78 -26v1zM664 -72l-36 -3q-14 -1 -21.5 -2t-14.5 0h-23q-35 0 -69 14.5t-69 34.5
l-35 21q-11 -2 -21.5 -3t-22.5 -1q-65 0 -122.5 26.5t-100.5 73.5t-67.5 112.5t-24.5 142.5q0 78 24.5 142.5t67.5 111t100.5 72.5t122.5 26t122.5 -26t100 -72.5t67.5 -111t25 -142.5q0 -53 -12.5 -101.5t-34 -89t-51.5 -72t-65 -50.5l25 -17q34 -23 63.5 -29t65.5 -6h13z
" />
    <glyph glyph-name="R" unicode="R" horiz-adv-x="563" 
d="M171 627v-269q6 -3 17 -5t23.5 -4t24.5 -3t19 -1q41 0 69.5 12t46.5 31.5t26 44t8 50.5q0 81 -50 112.5t-140 31.5h-44zM563 0h-115q-31 30 -94 105t-159 185q-12 1 -24 5v-295h-91v685h138q141 0 210 -50.5t69 -150.5q0 -37 -13 -70.5t-38 -59.5t-61 -43.5t-82 -21.5
q45 -49 81 -88.5t66 -73t57 -63.5t56 -61v-3z" />
    <glyph glyph-name="S" unicode="S" horiz-adv-x="513" 
d="M16 81l46 70h5q4 -5 16.5 -20.5t33.5 -32.5t51.5 -30.5t71.5 -13.5q25 0 50 4.5t45.5 16t34.5 31t17 49.5q5 51 -19.5 80.5t-63.5 49t-85.5 34.5t-87 38t-67.5 59.5t-27 99.5q0 23 11.5 54t37.5 59t69 47.5t105 19.5q65 0 112 -22t80 -55l11 -11l-45 -70h-5q-4 6 -15 22
t-30 32t-46 28.5t-63 12.5q-56 0 -92.5 -28.5t-36.5 -78.5q0 -45 26 -71t64.5 -44t84 -33t84 -38t64.5 -59.5t26 -96.5q0 -45 -18 -81.5t-50.5 -61.5t-76.5 -38.5t-95 -13.5q-72 0 -125.5 24t-86.5 57z" />
    <glyph glyph-name="T" unicode="T" horiz-adv-x="550" 
d="M229 0v622h-215l10 63h502l10 -63h-215v-622h-92z" />
    <glyph glyph-name="U" unicode="U" horiz-adv-x="671" 
d="M507 685h91v-470q0 -44 -17 -85t-49 -72.5t-80 -50t-109 -18.5q-62 0 -109.5 18.5t-80 50t-49.5 72.5t-17 85v470h92v-457q0 -56 18.5 -90.5t44 -53t53.5 -24.5t48 -6q18 0 46 6t54.5 24.5t45 53t18.5 90.5v457z" />
    <glyph glyph-name="V" unicode="V" horiz-adv-x="544" 
d="M295 0h-44l-209 596q-10 28 -17.5 48t-14.5 36v5h100l174 -515h2l174 515h74v-5q-4 -6 -13.5 -33t-29.5 -80z" />
    <glyph glyph-name="W" unicode="W" horiz-adv-x="843" 
d="M632 0h-46l-166 538l-154 -538h-48l-178 596q-9 29 -16 48.5t-14 35.5v5h102l143 -487h1l136 487h83l145 -487h2l135 487h76v-5q-5 -6 -14 -32.5t-24 -80.5z" />
    <glyph glyph-name="X" unicode="X" horiz-adv-x="547" 
d="M535 0h-103l-169 282l-176 -282h-77v5q5 6 25 38l65 104l125 201l-130 216q-30 50 -49 79t-24 37v5h101l154 -253l158 253h74v-5q-2 -3 -6.5 -10t-13.5 -20.5t-23 -36.5t-36 -58l-116 -188l134 -223q9 -15 23 -37.5t27 -44t23.5 -38t13.5 -19.5v-5z" />
    <glyph glyph-name="Y" unicode="Y" horiz-adv-x="545" 
d="M232 0v233q0 20 -1.5 41.5t-11.5 38.5l-142 253q-9 15 -20 34.5t-21 36.5t-17.5 29t-8.5 14v5h103l171 -311l176 311h75v-5q-4 -6 -21 -35.5t-48 -83.5l-131 -230q-8 -15 -10 -44t-2 -51v-236h-91z" />
    <glyph glyph-name="Z" unicode="Z" horiz-adv-x="544" 
d="M18 0l-9 22l367 600h-331l10 63h441l10 -21l-367 -601h387l-10 -63h-498z" />
    <glyph glyph-name="bracketleft" unicode="[" horiz-adv-x="299" 
d="M257 -263h-164v1010h164v-48h-80v-915h80v-47z" />
    <glyph glyph-name="backslash" unicode="\" horiz-adv-x="527" 
d="M538 -263h-56l-486 1014h58z" />
    <glyph glyph-name="bracketright" unicode="]" horiz-adv-x="299" 
d="M207 -263h-165v47h80v915h-80v48h165v-1010z" />
    <glyph glyph-name="asciicircum" unicode="^" horiz-adv-x="417" 
d="M386 469h-51l-127 204l-127 -204h-50l164 258h28z" />
    <glyph glyph-name="underscore" unicode="_" horiz-adv-x="503" 
d="M503 -248h-503v51h503v-51z" />
    <glyph glyph-name="grave" unicode="`" horiz-adv-x="211" 
d="M193 520l-44 -23l-122 163q-5 5 -5.5 14t7.5 12l62 30q9 4 15.5 -2t9.5 -14z" />
    <glyph glyph-name="a" unicode="a" 
d="M396 0h-85v73q-12 -18 -29 -33.5t-37.5 -26.5t-44 -17.5t-47.5 -6.5q-60 2 -94 34.5t-34 79.5q0 72 52.5 117t155.5 65l76 13v46q0 31 -8.5 52.5t-22.5 34.5t-31.5 18.5t-34.5 5.5q-41 0 -68.5 -21.5t-45.5 -48.5h-5l-38 72q36 23 77 36t86 13q88 0 133 -47t45 -124v-335
zM309 256l-63 -13q-60 -14 -96.5 -44t-36.5 -87q0 -25 16.5 -46t56.5 -21q24 0 59.5 19t63.5 61v131z" />
    <glyph glyph-name="b" unicode="b" horiz-adv-x="572" 
d="M171 101q20 -22 49 -34.5t61 -12.5q27 0 54.5 11.5t50 36t36.5 63t14 92.5q0 51 -14 87t-37 58.5t-52.5 33t-60.5 10.5q-15 0 -43 -5.5t-58 -22.5v-317zM73 0q3 10 5 34.5t3.5 52.5t2.5 54t1 40v564h86v-280q32 26 69.5 33.5t66.5 7.5q45 0 85.5 -18t70.5 -51t47.5 -79
t17.5 -102q0 -53 -14.5 -97t-39.5 -78t-58.5 -55.5t-71.5 -29.5q-24 -8 -54 -6q-15 1 -33 5t-36.5 13t-35.5 23t-30 35q-3 -17 -6.5 -34.5t-6.5 -31.5h-69z" />
    <glyph glyph-name="c" unicode="c" horiz-adv-x="476" 
d="M476 90q-29 -45 -79.5 -76.5t-122.5 -31.5q-45 0 -87.5 18t-75 51.5t-52 81t-19.5 107.5q0 58 20.5 107t55 84t79.5 55t95 20q18 0 38.5 -2t41.5 -7.5t41.5 -15.5t38.5 -26l-42 -67h-3q-28 42 -59.5 54.5t-55.5 12.5q-29 0 -57 -12.5t-50 -36.5t-35.5 -58.5t-13.5 -78.5
q0 -65 16 -108.5t41 -69.5t55 -37t58 -11q10 0 25.5 2t34 9.5t39.5 22.5t42 40z" />
    <glyph glyph-name="d" unicode="d" horiz-adv-x="565" 
d="M393 411q-20 14 -47 21t-44 7q-36 0 -67 -12.5t-54 -37.5t-36.5 -63.5t-13.5 -89.5q0 -50 13 -84.5t33.5 -55.5t46.5 -30t52 -9q29 0 61.5 15.5t55.5 47.5v291zM479 0h-83v67q-16 -23 -35.5 -38t-39.5 -24t-38.5 -12.5t-32.5 -3.5q-44 0 -82.5 16t-67 47.5t-44.5 76.5
t-16 104t17 108t47 84.5t71.5 55t90.5 19.5q12 0 28 -1.5t33 -6t34 -11.5t32 -17v281h86v-745z" />
    <glyph glyph-name="e" unicode="e" horiz-adv-x="485" 
d="M339 328q21 0 27.5 1t6.5 10q0 34 -11.5 56t-28 35t-35 17.5t-33.5 4.5q-17 0 -36.5 -6t-37.5 -20.5t-32.5 -38t-20.5 -59.5h201zM476 90q-29 -45 -81 -76.5t-124 -31.5q-45 0 -87 18t-74 51.5t-51 81t-19 107.5q0 55 16 103.5t46 84.5t72 57t94 21q26 0 59.5 -9
t63 -31.5t49.5 -61t20 -98.5q0 -10 -4 -22t-22 -12h-300q-3 -66 11.5 -110t39.5 -70.5t56 -37.5t60 -11q10 0 26 2t35 9.5t40.5 22t42.5 40.5z" />
    <glyph glyph-name="f" unicode="f" horiz-adv-x="338" 
d="M185 0h-86v440h-99l10 55h89v16q0 59 18 104t48.5 75t69.5 46t81 18q16 2 32 0t37.5 -9.5t41.5 -23.5l-39 -76h-6q-21 26 -43.5 33.5t-40.5 7.5q-12 0 -31.5 -5t-38.5 -22.5t-32 -50t-11 -87.5v-26h153l-10 -55h-143v-440z" />
    <glyph glyph-name="g" unicode="g" horiz-adv-x="568" 
d="M404 394q-20 22 -49 34.5t-61 12.5q-27 0 -54.5 -10.5t-50 -33.5t-36.5 -60.5t-14 -91.5q0 -51 14 -88t37.5 -61t53 -35.5t59.5 -11.5q14 0 43 5t58 23v317zM404 30q-29 -23 -61.5 -32t-61.5 -9q-53 0 -96.5 22t-74 58.5t-47 82.5t-16.5 94q0 54 15 98.5t41 77.5
t60.5 53.5t73.5 26.5q21 4 45 3q15 0 33.5 -4t37 -12.5t36 -23t31.5 -36.5q3 17 6.5 34.5t6.5 31.5h69q-4 -17 -6.5 -40.5t-3.5 -49t-1.5 -49.5t-0.5 -40v-345q0 -58 -17 -101.5t-47.5 -72.5t-72.5 -43.5t-93 -14.5q-12 0 -32.5 3t-44 10t-48 19.5t-44.5 30.5l-11 9l43 67h5
q8 -13 23 -26.5t33.5 -24.5t40.5 -18t43 -7q60 0 98 38.5t38 120.5v69z" />
    <glyph glyph-name="h" unicode="h" horiz-adv-x="581" 
d="M172 0h-86v745h86v-239v-35t-1 -67q23 36 48.5 56.5t49.5 30.5t44.5 12.5t32.5 2.5q27 0 53.5 -9t48 -28t34.5 -49t13 -72v-348h-86v333q0 30 -8.5 50t-22.5 32.5t-31.5 18t-35.5 5.5q-29 0 -52.5 -12t-41.5 -29t-29.5 -35t-15.5 -31v-332z" />
    <glyph glyph-name="i" unicode="i" horiz-adv-x="267" 
d="M177 0h-87v495h87v-495zM134 564q-23 0 -39 15t-16 38t16 39t39 16t38.5 -16t15.5 -39t-15.5 -38t-38.5 -15z" />
    <glyph glyph-name="j" unicode="j" horiz-adv-x="270" 
d="M-73 -226l42 64h5q14 -20 31 -25.5t25 -4.5q20 1 35.5 14.5t20.5 42.5q7 33 6 67.5t-1 72.5v490h87v-457q0 -63 -7 -117.5t-25 -95t-49.5 -63.5t-79.5 -23q-20 0 -44 7.5t-35 18.5zM134 564q-23 0 -38.5 15t-15.5 38t15.5 39t38.5 16t38.5 -16t15.5 -39t-15.5 -38
t-38.5 -15z" />
    <glyph glyph-name="k" unicode="k" horiz-adv-x="552" 
d="M529 0h-106l-200 250l-49 -44v-206h-87v745h87v-468l250 218h81v-3l-220 -192l244 -295v-5z" />
    <glyph glyph-name="l" unicode="l" horiz-adv-x="267" 
d="M177 0h-87v745h87v-745z" />
    <glyph glyph-name="m" unicode="m" horiz-adv-x="856" 
d="M172 0h-86v495h85v-91h1q18 35 39.5 55.5t43 31t41 13t33.5 2.5q46 0 83.5 -25t51.5 -79h1q18 35 40.5 56t45.5 31.5t43.5 13.5t34.5 3q28 0 53.5 -9t45 -28.5t31 -49.5t11.5 -72v-347h-86v333q0 31 -6.5 51.5t-18.5 32.5t-28 17t-35 5q-25 0 -46 -12t-37.5 -29t-27 -36
t-14.5 -33v-329h-86v333q0 31 -6.5 51.5t-18 32.5t-27.5 17t-35 5q-25 0 -46 -12t-37.5 -29t-27.5 -36t-15 -33v-329z" />
    <glyph glyph-name="n" unicode="n" horiz-adv-x="581" 
d="M495 0h-86v333q0 30 -8.5 50t-22.5 32.5t-31.5 18t-35.5 5.5q-29 0 -52.5 -12t-41.5 -29t-29.5 -35t-15.5 -31v-332h-86v495h85v-91h1q22 36 47.5 56.5t49.5 30.5t44.5 12.5t32.5 2.5q27 0 53.5 -9t48 -28t34.5 -49t13 -72v-348z" />
    <glyph glyph-name="o" unicode="o" horiz-adv-x="553" 
d="M277 -11q-53 0 -96.5 21t-74.5 56.5t-48.5 82.5t-17.5 99t17.5 99t48.5 82t74.5 56t96.5 21q52 0 95.5 -21t75 -56t48.5 -82t17 -99t-17 -99t-48.5 -82.5t-75 -56.5t-95.5 -21zM277 43q30 0 56.5 13.5t46 39.5t31 64t11.5 88q0 49 -11.5 87.5t-31 64t-46 39t-56.5 13.5
t-57 -13.5t-46.5 -39t-31 -64t-11.5 -87.5q0 -50 11.5 -88t31 -64t46.5 -39.5t57 -13.5z" />
    <glyph glyph-name="p" unicode="p" horiz-adv-x="565" 
d="M172 78q10 -7 24.5 -12.5t29.5 -9t28 -5t22 -1.5q33 0 62 13.5t50 40t33.5 65.5t12.5 90q0 50 -13 84.5t-33.5 55.5t-46.5 30t-52 9q-29 0 -61.5 -15.5t-55.5 -47.5v-297zM172 -250h-86v745h84v-67q16 23 35.5 38t39.5 24t38.5 12.5t32.5 3.5q44 0 82 -16t66.5 -47.5
t44.5 -77t16 -103.5q0 -59 -15.5 -109t-44 -86.5t-67.5 -57t-85 -20.5q-12 0 -30 1.5t-37.5 6t-39 11t-34.5 17.5v-275z" />
    <glyph glyph-name="q" unicode="q" horiz-adv-x="567" 
d="M397 394q-20 22 -49 34.5t-61 12.5q-27 0 -54.5 -10.5t-50 -33.5t-36.5 -60.5t-14 -91.5q0 -51 14 -88t37 -61t52.5 -35.5t60.5 -11.5q15 0 43 5.5t58 22.5v317zM483 -250h-86v280q-32 -26 -69 -33.5t-66 -7.5q-45 0 -85.5 19t-71 53.5t-48 81.5t-17.5 103
q0 60 18.5 108.5t50 82t72.5 51.5t86 18q15 0 34 -3t39 -11.5t39 -23.5t34 -39q3 17 6.5 34.5t6.5 31.5h69q-3 -10 -5 -34.5t-3.5 -52.5t-2.5 -54.5t-1 -39.5v-564z" />
    <glyph glyph-name="r" unicode="r" horiz-adv-x="382" 
d="M172 0h-86v495h85v-91h1q18 28 39 47t42.5 31t42.5 17.5t39 6.5q10 1 18.5 0t16.5 -3l-8 -83h-2q-26 8 -50 7t-44 -9q-32 -11 -56 -34t-38 -52v-332z" />
    <glyph glyph-name="s" unicode="s" horiz-adv-x="400" 
d="M57 108h5q20 -28 56 -48t75 -20q10 0 26 3.5t31 11.5t26.5 22.5t11.5 36.5q1 37 -18 58.5t-47 35.5t-61 25t-61.5 27t-47.5 41t-19 68q0 30 13.5 55t36.5 43t54 28.5t66 10.5q44 0 80 -13t68 -36l-39 -70h-5q-18 27 -46.5 47.5t-65.5 20.5q-38 0 -61.5 -19.5t-23.5 -51.5
q0 -31 19 -49t48 -31t62.5 -24.5t62 -29.5t47.5 -45t19 -71q0 -27 -10.5 -53.5t-33 -46.5t-57.5 -32.5t-84 -12.5q-45 0 -87 13t-79 36z" />
    <glyph glyph-name="t" unicode="t" horiz-adv-x="336" 
d="M326 61q-20 -24 -38 -38.5t-34 -22t-31 -9.5t-30 -2q-36 0 -63.5 24t-30.5 74q-1 10 -1.5 20t-0.5 21v312h-97l10 55h87v79l53 64h33v-143h153l-10 -55h-143v-300q0 -45 9 -65.5t35 -20.5q15 0 32.5 9t38.5 31z" />
    <glyph glyph-name="u" unicode="u" horiz-adv-x="581" 
d="M495 0h-85v91h-1q-22 -36 -47.5 -56.5t-49.5 -30.5t-44.5 -12.5t-32.5 -2.5q-27 0 -53.5 9t-47.5 28t-34.5 49t-13.5 72v348h86v-333q0 -30 8.5 -50t22.5 -32.5t31.5 -18t35.5 -5.5q28 0 52 12t42 29t29.5 35t15.5 31v332h86v-495z" />
    <glyph glyph-name="v" unicode="v" horiz-adv-x="440" 
d="M213 0l-203 491v4h95l138 -356h1l117 356h69l-5 -16q-42 -120 -83 -239t-83 -240h-46z" />
    <glyph glyph-name="w" unicode="w" horiz-adv-x="708" 
d="M508 0l-148 402l-118 -402h-47l-185 495h94l123 -340h1l96 340h91l122 -334h1l94 334h66l-4 -17q-35 -120 -69.5 -239t-69.5 -239h-47z" />
    <glyph glyph-name="x" unicode="x" horiz-adv-x="450" 
d="M440 0h-99l-123 206h-2l-134 -206h-72v3l174 253l-152 235v4h95l111 -171h1l107 171h72v-3l-147 -220l169 -268v-4z" />
    <glyph glyph-name="y" unicode="y" horiz-adv-x="443" 
d="M24 -227l44 68h5q8 -12 19 -16.5t22 -4.5q10 0 21 5.5t23 24.5t25.5 55t29.5 97l-203 489v4h91l152 -376h1l112 376h67l-178 -581q-15 -50 -30.5 -83.5t-33.5 -53.5t-39 -29t-46 -9q-24 0 -42.5 7.5t-30.5 18.5z" />
    <glyph glyph-name="z" unicode="z" horiz-adv-x="432" 
d="M407 0h-395l-4 9l283 431h-257l11 55h369l3 -8l-280 -429h282z" />
    <glyph glyph-name="braceleft" unicode="{" horiz-adv-x="335" 
d="M299 -263q-52 1 -87 14.5t-56 38.5t-29.5 60.5t-8.5 82.5v195q0 25 -3 42.5t-10.5 29.5t-21 20.5t-35.5 15.5v20q22 7 35.5 14t21 17.5t10.5 26.5t3 42v195q0 100 42 147t139 49v-50q-35 -1 -54 -10.5t-28 -26t-11 -40.5t-2 -54v-208q0 -50 -19.5 -76.5t-56.5 -36.5
q38 -8 57 -39.5t19 -80.5v-219q0 -27 2.5 -49t12.5 -37t28.5 -23.5t51.5 -9.5v-50z" />
    <glyph glyph-name="bar" unicode="|" horiz-adv-x="309" 
d="M184 -263h-58v995h58v-995z" />
    <glyph glyph-name="braceright" unicode="}" horiz-adv-x="340" 
d="M48 -213q33 1 51.5 9.5t28 23.5t12 37t2.5 49v219q0 101 77 121q-77 17 -77 112v220q0 27 -2.5 49t-12 37t-28 23.5t-51.5 9.5v50q52 -2 87 -15.5t56 -38t29.5 -60.5t8.5 -82v-195q0 -26 3 -42t10.5 -26.5t21 -17.5t35.5 -14v-20q-22 -7 -35.5 -15.5t-21 -20.5
t-10.5 -29.5t-3 -42.5v-195q0 -100 -42 -147.5t-139 -48.5v50z" />
    <glyph glyph-name="asciitilde" unicode="~" horiz-adv-x="462" 
d="M454 313q-8 -51 -41 -84t-96 -33q-33 0 -58 7.5t-46 16.5t-40.5 16.5t-40.5 7.5q-17 0 -31 -8t-30 -40h-61q5 21 15 42t27 37.5t41.5 27t57.5 10.5q24 0 48 -7.5t47 -16t44.5 -16t40.5 -7.5q26 0 39 9.5t22 37.5h62z" />
    <glyph glyph-name="uni00A0" unicode="&#xa0;" horiz-adv-x="298" 
 />
    <glyph glyph-name="exclamdown" unicode="&#xa1;" horiz-adv-x="287" 
d="M145 373q-23 0 -39 16t-16 39t16 38t39 15t38.5 -15t15.5 -38t-15.5 -39t-38.5 -16zM113 -195q-8 0 -12.5 3t-3.5 17l22 486h49l22 -486q2 -14 -3 -17t-13 -3h-61z" />
    <glyph glyph-name="cent" unicode="&#xa2;" horiz-adv-x="474" 
d="M250 448q-23 -6 -44.5 -21t-38 -38t-26.5 -53t-10 -67q0 -51 9.5 -88t26 -62.5t38 -40.5t45.5 -22v392zM308 -126h-58v109q-42 4 -81 23.5t-68 52.5t-46.5 79t-17.5 102q0 52 17 97.5t46.5 80t68 56.5t81.5 29v100h58v-98q34 -2 71 -12t68 -38l-42 -67h-2
q-23 32 -47.5 47t-47.5 18v-406q10 0 24 2.5t31.5 10t36.5 21t39 36.5l31 -27q-24 -40 -64.5 -68.5t-97.5 -36.5v-111z" />
    <glyph glyph-name="sterling" unicode="&#xa3;" horiz-adv-x="476" 
d="M446 0h-416l-10 31q26 12 44 31.5t30 44t18.5 52.5t8.5 56q1 11 1.5 20.5t-0.5 20.5q0 23 -3 46h-104l3 59h91q-2 11 -5.5 24.5t-7 28.5t-6 30t-2.5 28q0 42 15 78.5t42 63t64 42t82 15.5q29 0 64 -8.5t61 -25.5l-35 -62q-11 5 -28 11.5t-40 6.5q-14 10 -27 11.5
t-21 -0.5q-45 -8 -67.5 -43.5t-21.5 -85.5q1 -27 10.5 -59.5t13.5 -54.5h150l-3 -59h-138q1 -11 1.5 -21.5t1.5 -21.5q0 -18 -1 -35t-3 -34q-5 -39 -18 -69t-34 -57v-1h300z" />
    <glyph glyph-name="currency" unicode="&#xa4;" horiz-adv-x="510" 
d="M260 409q24 0 44.5 9t35.5 24.5t24 36.5t9 45t-9 44.5t-24 36t-35.5 24.5t-44.5 9t-45 -9t-36 -24.5t-24 -36t-9 -44.5t9 -45t24 -36.5t36 -24.5t45 -9zM417 341l-48 49q-23 -19 -51.5 -28t-57.5 -9q-30 0 -59 10t-52 29l-47 -47l-22 25l46 45q-19 23 -30 49t-11 60
t11 60t30 49l-46 45l26 26l45 -46q23 19 51.5 28t57.5 9t57.5 -9t51.5 -28l45 46l24 -21l-47 -47q20 -23 32 -50t12 -62q0 -34 -11 -60.5t-31 -49.5l50 -49z" />
    <glyph glyph-name="yen" unicode="&#xa5;" horiz-adv-x="545" 
d="M509 156h-186v-156h-91v156h-196v51h196v33.5t-2 33.5h-194v51h176l-145 260q-8 15 -17.5 31t-18 30t-14.5 23t-7 11v5h103l171 -311l176 311h75v-5q-4 -5 -16.5 -26t-42.5 -73l-40 -70q-23 -42 -46.5 -82t-46.5 -82q-6 -8 -9 -22h175v-51h-185q-1 -17 -1 -35v-32h186
v-51z" />
    <glyph glyph-name="brokenbar" unicode="&#xa6;" horiz-adv-x="313" 
d="M186 -263h-59v379h59v-379zM186 373h-59v379h59v-379z" />
    <glyph glyph-name="section" unicode="&#xa7;" horiz-adv-x="479" 
d="M276 158q11 4 24.5 13t25 21.5t19.5 26.5t8 28q0 23 -15 45.5t-38 42t-50 35.5t-52 27q-29 -21 -45 -54t-16 -67q2 -25 16 -43.5t34 -32t44 -23.5t45 -19zM53 -113l59 63h7q6 -15 17 -30t26 -26.5t34.5 -19t42.5 -7.5q15 0 34 4.5t36 14.5t28.5 27t11.5 42q0 39 -22 64.5
t-55.5 44t-72.5 35t-72.5 37t-55.5 49.5t-22 74q0 57 29 100.5t74 69.5q-15 8 -32 20t-32 28.5t-25 39t-10 51.5q0 33 14 62.5t39 51.5t59 35t74 13q55 0 94.5 -19t70.5 -50l4 -4l-58 -63h-7q-6 12 -15.5 25.5t-22.5 24.5t-30 18t-37 7q-21 0 -39 -6.5t-30.5 -18.5t-19 -29
t-4.5 -37q3 -34 26.5 -57.5t56.5 -43t71 -37t70 -40t53 -53t21 -75.5q0 -26 -9 -49t-24 -41.5t-34.5 -32.5t-40.5 -22q15 -9 33.5 -22t35 -31t28 -42.5t11.5 -56.5t-13.5 -62.5t-39.5 -54.5t-63.5 -39t-86.5 -15q-27 0 -54 6.5t-51 17.5t-43.5 24.5t-31.5 27.5z" />
    <glyph glyph-name="dieresis" unicode="&#xa8;" horiz-adv-x="416" 
d="M337 507q-23 0 -38 15.5t-15 38.5q0 22 15 38t38 16t38.5 -16t15.5 -38q0 -23 -15.5 -38.5t-38.5 -15.5zM120 507q-22 0 -37.5 15.5t-15.5 38.5q0 22 15.5 38t37.5 16q23 0 38.5 -16t15.5 -38q0 -23 -15.5 -38.5t-38.5 -15.5z" />
    <glyph glyph-name="copyright" unicode="&#xa9;" horiz-adv-x="763" 
d="M381 -7q-71 0 -133 26.5t-108.5 73t-73 108.5t-26.5 133t26.5 133t73 108.5t108.5 73t133 26.5t133 -26.5t108.5 -73t73 -108.5t26.5 -133t-26.5 -133t-73 -108.5t-108.5 -73t-133 -26.5zM678 334q0 61 -23.5 115.5t-63.5 94.5t-94.5 63.5t-115.5 23.5q-62 0 -116 -23.5
t-94 -63.5t-63.5 -94.5t-23.5 -115.5q0 -62 23.5 -116t63.5 -94t94 -63.5t116 -23.5q61 0 115.5 23.5t94.5 63.5t63.5 94t23.5 116zM561 244q-52 -120 -174 -120q-42 0 -78.5 14.5t-62.5 41.5t-41 66t-15 88q0 46 16.5 86t45 68.5t66.5 45t80 16.5q44 0 78 -14t59 -38l7 -7
l-32 -37h-3q-3 3 -9.5 11.5t-19 18t-31.5 17t-46 7.5q-29 0 -54.5 -12t-44.5 -34.5t-30 -54.5t-11 -72q0 -76 37.5 -120.5t97.5 -44.5q15 0 32.5 4t36 13.5t35.5 26.5t30 44z" />
    <glyph glyph-name="ordfeminine" unicode="&#xaa;" horiz-adv-x="324" 
d="M280 445h-63v48q-14 -23 -38.5 -39t-56.5 -16q-42 0 -66 22t-24 52q0 47 37.5 75.5t107.5 41.5l40 8v21q0 21 -5.5 34t-14.5 21t-20 11.5t-22 3.5q-27 0 -43 -13.5t-24 -27.5h-3l-35 42q25 17 51 26t58 9q60 0 90.5 -30.5t30.5 -81.5v-207zM217 612l-17 -4
q-48 -15 -73.5 -31t-25.5 -51q0 -16 10.5 -30.5t36.5 -14.5q15 0 32 10t37 38v83z" />
    <glyph glyph-name="guillemotleft" unicode="&#xab;" horiz-adv-x="536" 
d="M268 14h-48l-146 240l146 223h49l-106 -223zM459 14h-48l-147 240l147 223h49l-107 -223z" />
    <glyph glyph-name="logicalnot" unicode="&#xac;" horiz-adv-x="538" 
d="M501 157h-56v259h-445v51h501v-310z" />
    <glyph glyph-name="uni00AD" unicode="&#xad;" horiz-adv-x="425" 
d="M397 216h-370v50h370v-50z" />
    <glyph glyph-name="registered" unicode="&#xae;" horiz-adv-x="760" 
d="M317 512v-160q6 -4 23 -6t25 -2q26 0 44 7t29.5 18.5t16.5 26t5 30.5q0 49 -31.5 67.5t-95.5 18.5h-16zM555 137h-77q-20 18 -56 62.5t-96 111.5q-2 1 -4.5 1t-4.5 2v-177h-63v410h93q85 0 128.5 -30.5t43.5 -91.5q0 -45 -31 -77.5t-90 -37.5q54 -56 91 -97t66 -76z
M381 -7q-71 0 -133 26.5t-108.5 73t-73 108.5t-26.5 133t26.5 133t73 108.5t108.5 73t133 26.5t133 -26.5t108.5 -73t73 -108.5t26.5 -133t-26.5 -133t-73 -108.5t-108.5 -73t-133 -26.5zM678 334q0 61 -23.5 115.5t-63.5 94.5t-94.5 63.5t-115.5 23.5q-62 0 -116 -23.5
t-94 -63.5t-63.5 -94.5t-23.5 -115.5q0 -62 23.5 -116t63.5 -94t94 -63.5t116 -23.5q61 0 115.5 23.5t94.5 63.5t63.5 94t23.5 116z" />
    <glyph glyph-name="macron" unicode="&#xaf;" horiz-adv-x="500" 
d="M500 662h-500v51h500v-51z" />
    <glyph glyph-name="degree" unicode="&#xb0;" horiz-adv-x="381" 
d="M288 665q0 -42 -28 -70t-70 -28t-70 28t-28 70q0 20 7.5 38t20.5 31.5t31 21t39 7.5t39 -7.5t31 -21t20.5 -31.5t7.5 -38zM247 665q0 24 -16.5 40.5t-40.5 16.5t-40.5 -16.5t-16.5 -40.5t16.5 -40.5t40.5 -16.5t40.5 16.5t16.5 40.5z" />
    <glyph glyph-name="plusminus" unicode="&#xb1;" horiz-adv-x="513" 
d="M489 0h-466v51h466v-51zM284 234h-56v215h-205v50h205v204h56v-204h205v-50h-205v-215z" />
    <glyph glyph-name="uni00B2" unicode="&#xb2;" horiz-adv-x="317" 
d="M269 451h-210l-7 38q47 29 76 52.5t44.5 43.5t21 38.5t5.5 37.5q0 29 -16 44t-39 15q-5 0 -12.5 -1.5t-16 -6.5t-17 -13.5t-14.5 -23.5h-2l-36 48q27 25 58.5 33.5t48.5 8.5q53 0 82.5 -30.5t29.5 -72.5q0 -55 -37 -97t-98 -67v-3h142z" />
    <glyph glyph-name="uni00B3" unicode="&#xb3;" horiz-adv-x="321" 
d="M204 617q38 -5 56 -27t18 -54q0 -14 -6 -30.5t-20 -31t-37 -24.5t-57 -10q-38 0 -70.5 21.5t-43.5 50.5l25 14q20 -24 39 -33.5t41 -9.5q35 0 48.5 17t13.5 37q0 29 -16 45.5t-42 16.5q-7 0 -13.5 -0.5t-10.5 -3.5v37q4 -2 7 -1.5t8 0.5q35 0 46 16t11 33q0 20 -14 31.5
t-35 11.5q-13 0 -30.5 -9t-31.5 -35h-2l-31 47q12 11 27 18.5t29 11.5t26.5 5.5t20.5 1.5q28 0 47.5 -6.5t32 -17t18.5 -24t6 -26.5q0 -24 -13.5 -44.5t-46.5 -27.5z" />
    <glyph glyph-name="acute" unicode="&#xb4;" horiz-adv-x="543" 
d="M229 502l-44 23l77 180q4 8 10 14t15 2l63 -30q8 -3 7.5 -12t-5.5 -15z" />
    <glyph glyph-name="mu" unicode="&#xb5;" horiz-adv-x="581" 
d="M495 0h-85v91h-1q-21 -34 -45 -54t-46.5 -30t-41.5 -13t-31 -4q-39 -2 -73 17q0 -67 3 -113t6 -74.5t6 -41.5t3 -14v-3l-89 -13q0 1 -0.5 1t-0.5 1q-5 24 -7.5 59.5t-4 71.5t-2 66t-0.5 42v506h86v-333q0 -30 8.5 -50t22.5 -32.5t31.5 -18t35.5 -5.5q28 0 52 12t42 29
t29.5 35t15.5 31v332h86v-495z" />
    <glyph glyph-name="paragraph" unicode="&#xb6;" horiz-adv-x="559" 
d="M473 -65h-63v771h-71v-771h-62v361q-53 0 -97 17t-75.5 47t-49.5 70.5t-18 87.5q0 44 17 87t54.5 77.5t97 56t145.5 21.5q45 0 75 -2t47 -4v-819z" />
    <glyph glyph-name="periodcentered" unicode="&#xb7;" horiz-adv-x="363" 
d="M182 186q-23 0 -38.5 16t-15.5 38t15.5 38t38.5 16q22 0 38 -16t16 -38t-16 -38t-38 -16z" />
    <glyph glyph-name="cedilla" unicode="&#xb8;" horiz-adv-x="396" 
d="M141 -208q30 18 37.5 32t7.5 24t-6.5 18.5t-15 16.5t-15 17.5t-6.5 22.5q0 7 3.5 16t12.5 20l31 43h45l-14 -27q-9 -17 -5.5 -30t11 -24.5t16.5 -22t11 -22.5q2 -5 2 -9.5v-9.5q-2 -26 -27 -51t-75 -39z" />
    <glyph glyph-name="uni00B9" unicode="&#xb9;" horiz-adv-x="282" 
d="M191 444h-65v217q-18 -9 -37.5 -15t-32.5 -8l-5 30q37 14 67.5 40t51.5 54l21 -5v-313z" />
    <glyph glyph-name="ordmasculine" unicode="&#xba;" horiz-adv-x="329" 
d="M163 438q-23 0 -46.5 10t-42 30.5t-30.5 50.5t-12 71q0 40 12 70.5t30.5 51t42 30.5t46.5 10t46.5 -10t42 -30.5t30.5 -51t12 -70.5q0 -41 -12 -71t-30.5 -50.5t-42 -30.5t-46.5 -10zM163 483q12 0 23 5.5t20 19t14.5 36t5.5 56.5t-5.5 56.5t-14.5 36t-20 19t-23 5.5
t-23.5 -5.5t-20.5 -19t-14.5 -36t-5.5 -56.5t5.5 -56.5t14.5 -36t20.5 -19t23.5 -5.5z" />
    <glyph glyph-name="guillemotright" unicode="&#xbb;" horiz-adv-x="554" 
d="M316 14h-48l105 240l-106 223h49l146 -223zM126 14h-49l106 240l-107 223h50l146 -223z" />
    <glyph glyph-name="onequarter" unicode="&#xbc;" horiz-adv-x="630" 
d="M97 -32h-61l510 783h63zM521 -10h-64v73h-143l-8 16l177 229l38 -7v-202h62v-36h-62v-73zM457 99v112q-1 0 -1 0.5t-1 0.5l-78 -108l4 -5h76zM191 423h-65v217q-18 -9 -37.5 -15.5t-32.5 -7.5l-5 30q37 14 67.5 40t51.5 54l21 -5v-313z" />
    <glyph glyph-name="onehalf" unicode="&#xbd;" horiz-adv-x="636" 
d="M94 -32h-61l511 783h62zM191 423h-64v217q-18 -9 -37.5 -15.5t-32.5 -7.5l-5 30q37 14 70.5 40t55.5 54l13 -5v-313zM576 -10h-210l-7 38q47 29 76 52.5t44.5 43.5t21 38.5t5.5 37.5q0 29 -16.5 44t-39.5 15q-5 0 -12.5 -1.5t-15.5 -6t-16.5 -13.5t-14.5 -24h-2l-36 48
q13 13 28.5 21t30 12.5t27 6.5t21.5 2q53 0 82.5 -30.5t29.5 -72.5q0 -55 -37 -97t-98 -67v-3h141z" />
    <glyph glyph-name="threequarters" unicode="&#xbe;" horiz-adv-x="630" 
d="M97 -32h-61l510 783h63zM521 -10h-64v73h-143l-8 16l177 229l38 -7v-202h62v-36h-62v-73zM457 99v112q-1 0 -1 0.5t-1 0.5l-78 -108l4 -5h76zM204 596q38 -5 56 -27t18 -54q0 -14 -6 -30.5t-20 -31t-37 -24.5t-57 -10q-38 0 -70.5 21.5t-43.5 50.5l25 14q20 -24 39 -33.5
t41 -9.5q33 0 46.5 16t15.5 34q0 13 -3 25q-5 20 -20 30.5t-35 10.5q-7 0 -13.5 -0.5t-10.5 -3.5v38q5 -2 15 -2q35 0 46 16t11 33q0 20 -14 31.5t-35 11.5q-13 0 -30.5 -9t-31.5 -35h-2l-31 47q12 11 27 18.5t29 11.5t26.5 5.5t20.5 1.5q28 0 47.5 -6.5t32 -17t18.5 -23.5
t6 -26q0 -25 -13.5 -45.5t-46.5 -27.5z" />
    <glyph glyph-name="questiondown" unicode="&#xbf;" horiz-adv-x="374" 
d="M277 432q0 -23 -15.5 -38.5t-38.5 -15.5t-38.5 15.5t-15.5 38.5q0 22 15.5 37.5t38.5 15.5t38.5 -15.5t15.5 -37.5zM294 -66l55 -24q-18 -32 -37.5 -51t-40.5 -29.5t-42.5 -14t-42.5 -3.5q-26 0 -52.5 9t-48 27.5t-35.5 46.5t-14 66q0 34 11.5 63t29.5 55.5t38 50.5
t38 48.5t29.5 49t11.5 52.5l2 2h59q1 -34 -9.5 -63t-26 -54t-34 -48.5t-34 -47.5t-26 -50t-10.5 -57q0 -45 24 -70.5t62 -25.5q27 0 50.5 16t38.5 51z" />
    <glyph glyph-name="Agrave" unicode="&#xc0;" horiz-adv-x="544" 
d="M359 733l-44 -23l-122 163q-5 6 -5.5 14.5t7.5 11.5l62 30q9 5 15 -1.5t10 -14.5zM342 269l-82 246h-2l-83 -246h167zM534 0h-100l-70 206h-209l-70 -206h-75v5q4 6 14.5 35.5t27.5 77.5l197 567h44l209 -596q11 -32 18.5 -50t13.5 -34v-5z" />
    <glyph glyph-name="Aacute" unicode="&#xc1;" horiz-adv-x="544" 
d="M201 715l-44 23l77 180q4 8 10 14.5t15 1.5l62 -30q8 -3 7.5 -11.5t-5.5 -14.5zM342 269l-82 246h-2l-83 -246h167zM534 0h-100l-70 206h-209l-70 -206h-75v5q4 6 14.5 35.5t27.5 77.5l197 567h44l209 -596q11 -32 18.5 -50t13.5 -34v-5z" />
    <glyph glyph-name="Acircumflex" unicode="&#xc2;" horiz-adv-x="544" 
d="M432 707h-67l-94 101l-95 -101h-67l145 182h34zM342 269l-82 246h-2l-83 -246h167zM534 0h-100l-70 206h-209l-70 -206h-75v5q4 6 14.5 35.5t27.5 77.5l197 567h44l209 -596q11 -32 18.5 -50t13.5 -34v-5z" />
    <glyph glyph-name="Atilde" unicode="&#xc3;" horiz-adv-x="544" 
d="M444 837q-6 -52 -32 -84.5t-74 -32.5q-25 0 -45 7.5t-38 16t-34.5 16t-32.5 7.5q-12 0 -23.5 -7.5t-23.5 -39.5h-46q3 21 11 42t21 37.5t31.5 27t44.5 10.5q19 0 38.5 -7.5t38.5 -16.5t36.5 -16.5t32.5 -7.5q20 0 30 9.5t18 38.5h47zM342 269l-82 246h-2l-83 -246h167z
M534 0h-100l-70 206h-209l-70 -206h-75v5q4 6 14.5 35.5t27.5 77.5l197 567h44l209 -596q11 -32 18.5 -50t13.5 -34v-5z" />
    <glyph glyph-name="Adieresis" unicode="&#xc4;" horiz-adv-x="544" 
d="M380 720q-23 0 -38.5 16t-15.5 38t15.5 38t38.5 16t38.5 -16t15.5 -38t-15.5 -38t-38.5 -16zM163 720q-22 0 -37.5 16t-15.5 38t15.5 38t37.5 16q23 0 38.5 -16t15.5 -38t-15.5 -38t-38.5 -16zM342 269l-82 246h-2l-83 -246h167zM534 0h-100l-70 206h-209l-70 -206h-75v5
q4 6 14.5 35.5t27.5 77.5l197 567h44l209 -596q11 -32 18.5 -50t13.5 -34v-5z" />
    <glyph glyph-name="Aring" unicode="&#xc5;" horiz-adv-x="544" 
d="M342 269l-82 246h-2l-83 -246h167zM534 0h-100l-70 206h-209l-70 -206h-75v5q4 6 14.5 35.5t27.5 77.5l197 567h44l209 -596q11 -32 18.5 -50t13.5 -34v-5zM318 814q0 20 -14 34.5t-34 14.5q-21 0 -35 -14.5t-14 -34.5q0 -21 14 -35t35 -14q20 0 34 14t14 35zM363 814
q0 -40 -27 -66.5t-66 -26.5q-40 0 -67 26.5t-27 66.5q0 39 27 66.5t67 27.5q39 0 66 -27.5t27 -66.5z" />
    <glyph glyph-name="AE" unicode="&#xc6;" horiz-adv-x="881" 
d="M436 0l-33 206h-211l-106 -206h-72v4q5 7 21 37t42 79l296 565h376l9 -63h-331l41 -237h263l2 -63h-257l43 -259h312l-11 -63h-384zM355 523h-2l-129 -254h170z" />
    <glyph glyph-name="Ccedilla" unicode="&#xc7;" horiz-adv-x="634" 
d="M273 -221q30 18 38 33t8 26q0 10 -6.5 18.5t-14.5 17t-14.5 18t-6.5 21.5q0 7 2.5 15.5t11.5 21.5l29 41q-62 5 -113.5 31.5t-88.5 71t-57.5 106t-20.5 137.5q0 81 25.5 147t70 113.5t103.5 73t126 25.5q71 0 129 -23t98 -63l11 -11l-53 -70h-5q-4 5 -16.5 21.5t-35 34.5
t-55 32t-76.5 14q-46 0 -86.5 -21t-71 -59t-48.5 -92t-18 -120q0 -63 16.5 -113.5t46.5 -86t71.5 -54.5t91.5 -19q25 0 53.5 6t57 22.5t55.5 45t50 73.5l50 -25q-39 -98 -104 -146.5t-159 -52.5l-13 -25q-9 -17 -7.5 -29.5t14.5 -25.5q15 -17 22 -30t7 -29q0 -26 -26 -54
t-77 -43z" />
    <glyph glyph-name="Egrave" unicode="&#xc8;" horiz-adv-x="525" 
d="M80 0v685h390l10 -63h-309v-231h271v-62h-271v-266h337l-10 -63h-418zM349 730l-44 -23l-122 163q-5 5 -5.5 14t7.5 12l62 30q9 4 15.5 -2t9.5 -14z" />
    <glyph glyph-name="Eacute" unicode="&#xc9;" horiz-adv-x="525" 
d="M80 0v685h390l10 -63h-309v-231h271v-62h-271v-266h337l-10 -63h-418zM219 712l-44 23l77 180q4 8 10 14t15 2l63 -30q8 -3 7.5 -12t-5.5 -15z" />
    <glyph glyph-name="Ecircumflex" unicode="&#xca;" horiz-adv-x="525" 
d="M80 0v685h390l10 -63h-309v-231h271v-62h-271v-266h337l-10 -63h-418zM434 719h-67l-95 101l-94 -101h-67l145 182h34z" />
    <glyph glyph-name="Edieresis" unicode="&#xcb;" horiz-adv-x="525" 
d="M80 0v685h390l10 -63h-309v-231h271v-62h-271v-266h337l-10 -63h-418zM370 717q-23 0 -38 15.5t-15 38.5q0 22 15 38t38 16t38.5 -16t15.5 -38q0 -23 -15.5 -38.5t-38.5 -15.5zM153 717q-22 0 -37.5 15.5t-15.5 38.5q0 22 15.5 38t37.5 16q23 0 38.5 -16t15.5 -38
q0 -23 -15.5 -38.5t-38.5 -15.5z" />
    <glyph glyph-name="Igrave" unicode="&#xcc;" horiz-adv-x="269" 
d="M89 0v685h91v-685h-91zM221 730l-44 -23l-122 163q-5 5 -5.5 14t7.5 12l62 30q9 4 15.5 -2t9.5 -14z" />
    <glyph glyph-name="Iacute" unicode="&#xcd;" horiz-adv-x="269" 
d="M89 0v685h91v-685h-91zM91 712l-44 23l77 180q4 8 10 14t15 2l63 -30q8 -3 7.5 -12t-5.5 -15z" />
    <glyph glyph-name="Icircumflex" unicode="&#xce;" horiz-adv-x="329" 
d="M119 0v685h91v-685h-91zM326 709h-67l-95 101l-94 -101h-67l145 182h34z" />
    <glyph glyph-name="Idieresis" unicode="&#xcf;" horiz-adv-x="269" 
d="M211 707q-23 0 -38 15.5t-15 38.5q0 22 15 38t38 16t38.5 -16t15.5 -38q0 -23 -15.5 -38.5t-38.5 -15.5zM56 707q-22 0 -37.5 15.5t-15.5 38.5q0 22 15.5 38t37.5 16q23 0 38.5 -16t15.5 -38q0 -23 -15.5 -38.5t-38.5 -15.5zM89 0v685h91v-685h-91z" />
    <glyph glyph-name="Eth" unicode="&#xd0;" horiz-adv-x="655" 
d="M171 64h101q55 0 100.5 21.5t77.5 60t49.5 90.5t17.5 112q0 72 -21 124.5t-56 87t-81 51t-95 16.5h-93v-241h121v-50h-121v-272zM80 0v336h-80v50h80v299h195q66 0 127.5 -19.5t109 -60.5t75.5 -105t28 -153q0 -81 -25.5 -145.5t-69 -109.5t-102 -68.5t-124.5 -23.5h-214
z" />
    <glyph glyph-name="Ntilde" unicode="&#xd1;" horiz-adv-x="670" 
d="M513 863q-6 -51 -31.5 -83.5t-74.5 -32.5q-25 0 -45 7.5t-38 16t-34.5 16t-32.5 7.5q-12 0 -23.5 -8t-23.5 -39h-45q3 21 11 41.5t20.5 37t31 27t44.5 10.5q19 0 39 -7.5t38.5 -16t36 -16t32.5 -7.5q20 0 30 9.5t18 37.5h47zM590 0h-74l-360 557v-557h-76v518v48t-0.5 52
t-1 43t-1.5 20v4h101l336 -508v508h76v-685z" />
    <glyph glyph-name="Ograve" unicode="&#xd2;" horiz-adv-x="710" 
d="M442 754l-44 -23l-122 163q-5 6 -5.5 14.5t7.5 11.5l62 30q9 5 15 -1.5t10 -14.5zM355 54q48 0 88 21t69.5 59t45.5 91.5t16 118.5q0 66 -16 119t-45.5 90.5t-69.5 57.5t-88 20t-88 -20t-69.5 -57.5t-45.5 -90.5t-16 -119q0 -65 16 -118.5t45.5 -91.5t69.5 -59t88 -21z
M355 -11q-65 0 -122.5 26.5t-100.5 73.5t-67.5 112.5t-24.5 142.5q0 78 24.5 142.5t67.5 111t100.5 72.5t122.5 26t122.5 -26t100 -72.5t67.5 -111t25 -142.5q0 -77 -25 -142.5t-67.5 -112.5t-100 -73.5t-122.5 -26.5z" />
    <glyph glyph-name="Oacute" unicode="&#xd3;" horiz-adv-x="710" 
d="M312 736l-44 23l77 180q4 8 10 14.5t15 1.5l62 -30q8 -3 7.5 -11.5t-5.5 -14.5zM355 54q48 0 88 21t69.5 59t45.5 91.5t16 118.5q0 66 -16 119t-45.5 90.5t-69.5 57.5t-88 20t-88 -20t-69.5 -57.5t-45.5 -90.5t-16 -119q0 -65 16 -118.5t45.5 -91.5t69.5 -59t88 -21z
M355 -11q-65 0 -122.5 26.5t-100.5 73.5t-67.5 112.5t-24.5 142.5q0 78 24.5 142.5t67.5 111t100.5 72.5t122.5 26t122.5 -26t100 -72.5t67.5 -111t25 -142.5q0 -77 -25 -142.5t-67.5 -112.5t-100 -73.5t-122.5 -26.5z" />
    <glyph glyph-name="Ocircumflex" unicode="&#xd4;" horiz-adv-x="710" 
d="M516 733h-66l-95 102l-94 -102h-67l144 182h35zM355 54q48 0 88 21t69.5 59t45.5 91.5t16 118.5q0 66 -16 119t-45.5 90.5t-69.5 57.5t-88 20t-88 -20t-69.5 -57.5t-45.5 -90.5t-16 -119q0 -65 16 -118.5t45.5 -91.5t69.5 -59t88 -21zM355 -11q-65 0 -122.5 26.5
t-100.5 73.5t-67.5 112.5t-24.5 142.5q0 78 24.5 142.5t67.5 111t100.5 72.5t122.5 26t122.5 -26t100 -72.5t67.5 -111t25 -142.5q0 -77 -25 -142.5t-67.5 -112.5t-100 -73.5t-122.5 -26.5z" />
    <glyph glyph-name="Otilde" unicode="&#xd5;" horiz-adv-x="710" 
d="M529 864q-5 -51 -31 -83.5t-74 -32.5q-25 0 -45 7.5t-38 16t-34.5 16t-32.5 7.5q-13 0 -24 -7.5t-24 -39.5h-45q3 21 11 41.5t21 37t31.5 27t44.5 10.5q19 0 38.5 -7.5t38.5 -16t36.5 -16t32.5 -7.5q19 0 29.5 9.5t18.5 37.5h46zM355 54q48 0 88 21t69.5 59t45.5 91.5
t16 118.5q0 66 -16 119t-45.5 90.5t-69.5 57.5t-88 20t-88 -20t-69.5 -57.5t-45.5 -90.5t-16 -119q0 -65 16 -118.5t45.5 -91.5t69.5 -59t88 -21zM355 -11q-65 0 -122.5 26.5t-100.5 73.5t-67.5 112.5t-24.5 142.5q0 78 24.5 142.5t67.5 111t100.5 72.5t122.5 26t122.5 -26
t100 -72.5t67.5 -111t25 -142.5q0 -77 -25 -142.5t-67.5 -112.5t-100 -73.5t-122.5 -26.5z" />
    <glyph glyph-name="Odieresis" unicode="&#xd6;" horiz-adv-x="710" 
d="M474 741q-23 0 -38.5 16t-15.5 38q0 23 15.5 38.5t38.5 15.5q22 0 37.5 -15.5t15.5 -38.5q0 -22 -15.5 -38t-37.5 -16zM235 741q-22 0 -37.5 16t-15.5 38q0 23 15.5 38.5t37.5 15.5q23 0 38.5 -15.5t15.5 -38.5q0 -22 -15.5 -38t-38.5 -16zM355 54q48 0 88 21t69.5 59
t45.5 91.5t16 118.5q0 66 -16 119t-45.5 90.5t-69.5 57.5t-88 20t-88 -20t-69.5 -57.5t-45.5 -90.5t-16 -119q0 -65 16 -118.5t45.5 -91.5t69.5 -59t88 -21zM355 -11q-65 0 -122.5 26.5t-100.5 73.5t-67.5 112.5t-24.5 142.5q0 78 24.5 142.5t67.5 111t100.5 72.5t122.5 26
t122.5 -26t100 -72.5t67.5 -111t25 -142.5q0 -77 -25 -142.5t-67.5 -112.5t-100 -73.5t-122.5 -26.5z" />
    <glyph glyph-name="multiply" unicode="&#xd7;" horiz-adv-x="443" 
d="M376 47l-152 153l-152 -150l-36 36l153 150l-145 143l40 40l143 -144l146 145l36 -36l-146 -145l153 -152z" />
    <glyph glyph-name="Oslash" unicode="&#xd8;" horiz-adv-x="710" 
d="M470 594q-49 37 -115 37q-48 0 -88 -20t-68.5 -57.5t-44.5 -90.5t-16 -119q0 -60 14 -111.5t40 -89.5zM228 100q54 -46 127 -46q48 0 88 21t68.5 59t44.5 91.5t16 118.5q0 66 -16 119.5t-46 91.5zM141 -40h-62l68 111q-50 48 -78.5 116.5t-28.5 156.5q0 80 24.5 145
t67.5 111t100.5 71t122.5 25q42 0 81 -10.5t73 -30.5l55 88h64l-75 -119q54 -46 85.5 -117.5t31.5 -162.5q0 -80 -25 -145.5t-67.5 -112t-100 -72t-122.5 -25.5q-93 0 -166 49z" />
    <glyph glyph-name="Ugrave" unicode="&#xd9;" horiz-adv-x="671" 
d="M422 754l-44 -23l-122 163q-5 6 -5.5 14.5t7.5 11.5l62 30q9 5 15.5 -1.5t9.5 -14.5zM505 685h86v-470q0 -44 -17 -85t-49.5 -72.5t-80.5 -50t-109 -18.5q-62 0 -109.5 18.5t-79.5 50t-49 72.5t-17 85v470h91v-457q0 -56 19 -90.5t45.5 -53t55 -24.5t47.5 -6t47.5 6
t55 24.5t45.5 53t19 90.5v457z" />
    <glyph glyph-name="Uacute" unicode="&#xda;" horiz-adv-x="671" 
d="M292 736l-44 23l77 180q4 8 10 14.5t15 1.5l62 -30q8 -3 7.5 -11.5t-5.5 -14.5zM505 685h86v-470q0 -44 -17 -85t-49.5 -72.5t-80.5 -50t-109 -18.5q-62 0 -109.5 18.5t-79.5 50t-49 72.5t-17 85v470h91v-457q0 -56 19 -90.5t45.5 -53t55 -24.5t47.5 -6t47.5 6t55 24.5
t45.5 53t19 90.5v457z" />
    <glyph glyph-name="Ucircumflex" unicode="&#xdb;" horiz-adv-x="671" 
d="M497 733h-67l-95 102l-94 -102h-67l145 182h34zM505 685h86v-470q0 -44 -17 -85t-49.5 -72.5t-80.5 -50t-109 -18.5q-62 0 -109.5 18.5t-79.5 50t-49 72.5t-17 85v470h91v-457q0 -56 19 -90.5t45.5 -53t55 -24.5t47.5 -6t47.5 6t55 24.5t45.5 53t19 90.5v457z" />
    <glyph glyph-name="Udieresis" unicode="&#xdc;" horiz-adv-x="671" 
d="M443 741q-23 0 -38 16t-15 38q0 23 15 38.5t38 15.5t38.5 -15.5t15.5 -38.5q0 -22 -15.5 -38t-38.5 -16zM226 741q-22 0 -37.5 16t-15.5 38q0 23 15.5 38.5t37.5 15.5q23 0 38.5 -15.5t15.5 -38.5q0 -22 -15.5 -38t-38.5 -16zM505 685h86v-470q0 -44 -17 -85t-49.5 -72.5
t-80.5 -50t-109 -18.5q-62 0 -109.5 18.5t-79.5 50t-49 72.5t-17 85v470h91v-457q0 -56 19 -90.5t45.5 -53t55 -24.5t47.5 -6t47.5 6t55 24.5t45.5 53t19 90.5v457z" />
    <glyph glyph-name="Yacute" unicode="&#xdd;" horiz-adv-x="545" 
d="M232 0v233q0 20 -1.5 41.5t-11.5 38.5l-142 253q-9 15 -20 34.5t-21 36.5t-17.5 29t-8.5 14v5h103l171 -311l176 311h75v-5q-4 -6 -21 -35.5t-48 -83.5l-131 -230q-8 -15 -10 -44t-2 -51v-236h-91zM239 722l-44 23l77 180q4 8 10 14t15 2l63 -30q8 -4 7.5 -12.5
t-5.5 -14.5z" />
    <glyph glyph-name="Thorn" unicode="&#xde;" horiz-adv-x="497" 
d="M179 0h-92v688h92v-132q70 0 122.5 -16t87 -44t51.5 -66.5t17 -82.5t-17 -82t-51.5 -66t-86.5 -44t-123 -16v-139zM179 199q24 0 55.5 5t59.5 21t47.5 45t19.5 77t-19.5 77.5t-47.5 45t-59.5 20.5t-55.5 5v-296z" />
    <glyph glyph-name="germandbls" unicode="&#xdf;" horiz-adv-x="579" 
d="M243 52q6 -2 16.5 -3t21 -1.5t19 -1t12.5 -0.5q31 0 56 6t42 20.5t26.5 39.5t9.5 63q0 42 -18 69t-42.5 43t-51 23t-42.5 10q-13 2 -21 2.5t-10 1.5q-4 0 -6.5 5t-3 11.5t1.5 13t7 10.5q0 8 4 12q35 27 58 46t36.5 36t19 35t5.5 42q0 32 -11 52t-26.5 31t-32 15t-26.5 4
q-23 0 -43.5 -7.5t-36.5 -26.5t-25.5 -52t-9.5 -83v-468h-92v455q0 59 16 104t45 76t68.5 46.5t87.5 15.5q34 0 65.5 -11.5t55.5 -32.5t38.5 -51t14.5 -67q0 -31 -7.5 -53.5t-22.5 -40.5t-38 -34.5t-55 -35.5q-8 -4 -7.5 -7t8.5 -4q58 -10 95 -31t58 -48t29 -56t8 -55
q0 -30 -10 -62t-33.5 -59t-61 -44t-92.5 -17q-3 0 -14.5 0.5t-26.5 2t-31 3.5t-27 6v52z" />
    <glyph glyph-name="agrave" unicode="&#xe0;" 
d="M328 585l-44 -23l-122 163q-5 6 -5.5 14.5t7.5 11.5l62 30q9 5 15 -1.5t10 -14.5zM396 0h-85v73q-12 -18 -29 -33.5t-37.5 -26.5t-44 -17.5t-47.5 -6.5q-60 2 -94 34.5t-34 79.5q0 72 57.5 117t160.5 65l66 13v46q0 31 -8.5 52.5t-22.5 34.5t-31.5 18.5t-34.5 5.5
q-41 0 -68.5 -21.5t-45.5 -48.5h-5l-38 72q36 23 77 36t86 13q88 0 133 -47t45 -124v-335zM309 256l-53 -13q-30 -7 -56 -18t-45.5 -27.5t-30.5 -38.5t-11 -50q0 -25 18.5 -44.5t54.5 -19.5q24 0 59.5 19t63.5 61v131z" />
    <glyph glyph-name="aacute" unicode="&#xe1;" 
d="M198 567l-44 23l77 180q4 8 10 14.5t15 1.5l62 -30q8 -3 7.5 -11.5t-5.5 -14.5zM396 0h-85v73q-12 -18 -29 -33.5t-37.5 -26.5t-44 -17.5t-47.5 -6.5q-60 2 -94 34.5t-34 79.5q0 72 57.5 117t160.5 65l66 13v46q0 31 -8.5 52.5t-22.5 34.5t-31.5 18.5t-34.5 5.5
q-41 0 -68.5 -21.5t-45.5 -48.5h-5l-38 72q36 23 77 36t86 13q88 0 133 -47t45 -124v-335zM309 256l-53 -13q-30 -7 -56 -18t-45.5 -27.5t-30.5 -38.5t-11 -50q0 -25 18.5 -44.5t54.5 -19.5q24 0 59.5 19t63.5 61v131z" />
    <glyph glyph-name="acircumflex" unicode="&#xe2;" 
d="M384 564h-67l-95 102l-94 -102h-67l144 182h35zM396 0h-85v73q-12 -18 -29 -33.5t-37.5 -26.5t-44 -17.5t-47.5 -6.5q-60 2 -94 34.5t-34 79.5q0 72 57.5 117t160.5 65l66 13v46q0 31 -8.5 52.5t-22.5 34.5t-31.5 18.5t-34.5 5.5q-41 0 -68.5 -21.5t-45.5 -48.5h-5
l-38 72q36 23 77 36t86 13q88 0 133 -47t45 -124v-335zM309 256l-53 -13q-30 -7 -56 -18t-45.5 -27.5t-30.5 -38.5t-11 -50q0 -25 18.5 -44.5t54.5 -19.5q24 0 59.5 19t63.5 61v131z" />
    <glyph glyph-name="atilde" unicode="&#xe3;" 
d="M410 682q-6 -51 -32 -83.5t-74 -32.5q-25 0 -45 7.5t-38 16t-34.5 16t-32.5 7.5q-12 0 -23.5 -8t-23.5 -39h-46q3 21 11 41.5t21 37t31.5 27t44.5 10.5q19 0 38.5 -7.5t38.5 -16t36.5 -16t32.5 -7.5q20 0 30 9.5t18 37.5h47zM396 0h-85v73q-12 -18 -29 -33.5t-37.5 -26.5
t-44 -17.5t-47.5 -6.5q-60 2 -94 34.5t-34 79.5q0 72 57.5 117t160.5 65l66 13v46q0 31 -8.5 52.5t-22.5 34.5t-31.5 18.5t-34.5 5.5q-41 0 -68.5 -21.5t-45.5 -48.5h-5l-38 72q36 23 77 36t86 13q88 0 133 -47t45 -124v-335zM309 256l-53 -13q-30 -7 -56 -18t-45.5 -27.5
t-30.5 -38.5t-11 -50q0 -25 18.5 -44.5t54.5 -19.5q24 0 59.5 19t63.5 61v131z" />
    <glyph glyph-name="adieresis" unicode="&#xe4;" 
d="M320 558q-23 0 -38.5 15.5t-15.5 37.5q0 23 15.5 39t38.5 16t38.5 -16t15.5 -39q0 -22 -15.5 -37.5t-38.5 -15.5zM103 558q-22 0 -37.5 15.5t-15.5 37.5q0 23 15.5 39t37.5 16q23 0 38.5 -16t15.5 -39q0 -22 -15.5 -37.5t-38.5 -15.5zM396 0h-85v73q-12 -18 -29 -33.5
t-37.5 -26.5t-44 -17.5t-47.5 -6.5q-60 2 -94 34.5t-34 79.5q0 72 57.5 117t160.5 65l66 13v46q0 31 -8.5 52.5t-22.5 34.5t-31.5 18.5t-34.5 5.5q-41 0 -68.5 -21.5t-45.5 -48.5h-5l-38 72q36 23 77 36t86 13q88 0 133 -47t45 -124v-335zM309 256l-53 -13q-30 -7 -56 -18
t-45.5 -27.5t-30.5 -38.5t-11 -50q0 -25 18.5 -44.5t54.5 -19.5q24 0 59.5 19t63.5 61v131z" />
    <glyph glyph-name="aring" unicode="&#xe5;" 
d="M396 0h-85v73q-12 -18 -29 -33.5t-37.5 -26.5t-44 -17.5t-47.5 -6.5q-60 2 -94 34.5t-34 79.5q0 72 57.5 117t160.5 65l66 13v46q0 31 -8.5 52.5t-22.5 34.5t-31.5 18.5t-34.5 5.5q-41 0 -68.5 -21.5t-45.5 -48.5h-5l-38 72q36 23 77 36t86 13q88 0 133 -47t45 -124v-335
zM309 256l-53 -13q-30 -7 -56 -18t-45.5 -27.5t-30.5 -38.5t-11 -50q0 -25 18.5 -44.5t54.5 -19.5q24 0 59.5 19t63.5 61v131zM272 655q0 20 -14.5 34.5t-34.5 14.5q-21 0 -35 -14.5t-14 -34.5q0 -21 14 -35t35 -14q20 0 34.5 14t14.5 35zM317 655q0 -40 -27.5 -66.5
t-66.5 -26.5q-40 0 -66.5 26.5t-26.5 66.5t26.5 67t66.5 27q39 0 66.5 -27t27.5 -67z" />
    <glyph glyph-name="ae" unicode="&#xe6;" horiz-adv-x="756" 
d="M602 328q21 0 27.5 2t6.5 11q0 34 -11 55.5t-27 34t-34 17t-32 4.5q-17 0 -36.5 -6t-37.5 -20.5t-32.5 -38t-20.5 -59.5h197zM309 256l-53 -14q-30 -8 -55 -19t-43 -27t-28 -37.5t-10 -49.5q0 -25 19 -44.5t54 -19.5q24 0 56 19t60 61v131zM740 90q-28 -45 -79 -76.5
t-123 -31.5q-55 0 -103.5 26t-80.5 75q-28 -32 -52.5 -50.5t-48 -28.5t-46.5 -12.5t-47 -2.5q-60 2 -94 34.5t-34 79.5q0 72 54 116t157 64l66 12v47q0 31 -8.5 52.5t-22.5 35t-31 19.5t-35 6q-39 0 -66.5 -21.5t-47.5 -48.5h-5l-38 72q36 23 77 36t86 13q57 0 95 -21.5
t59 -58.5q29 37 70 58.5t93 21.5q26 0 59 -8t61.5 -30t48 -60t19.5 -98q0 -10 -4 -24t-22 -14h-297q-3 -66 12.5 -109t40.5 -69t56.5 -36.5t60.5 -10.5q8 0 22.5 1.5t33 8.5t40 21t42.5 39z" />
    <glyph glyph-name="ccedilla" unicode="&#xe7;" horiz-adv-x="474" 
d="M206 -225q30 18 38 32t8 25q0 10 -6.5 18t-15 16.5t-15 18t-6.5 21.5q0 8 3 16.5t12 19.5l29 41q-42 3 -81 22t-69 52.5t-48 79.5t-18 103q0 58 20.5 107t55 84t80 55t94.5 20q18 0 38.5 -2t41.5 -7.5t41.5 -15.5t38.5 -26l-42 -67h-2q-28 42 -59.5 54.5t-56.5 12.5
q-29 0 -56.5 -12.5t-50 -36.5t-36 -58.5t-13.5 -78.5q0 -65 16 -108t41 -68.5t55 -35.5t58 -10q8 0 22.5 1.5t33 8.5t39.5 21t43 39l31 -27q-25 -41 -68 -71t-104 -36l-12 -25q-9 -17 -7.5 -29.5t14.5 -25.5q15 -17 22 -29.5t7 -29.5q0 -26 -25.5 -53t-76.5 -41z" />
    <glyph glyph-name="egrave" unicode="&#xe8;" 
d="M325 585l-44 -23l-122 163q-5 6 -5.5 14t7.5 12l62 30q9 5 15 -1.5t10 -14.5zM339 328q21 0 27.5 1t6.5 10q0 34 -11.5 56t-28 35t-35 17.5t-33.5 4.5q-17 0 -36.5 -6t-37.5 -20.5t-32.5 -38t-20.5 -59.5h201zM476 90q-29 -45 -81 -76.5t-124 -31.5q-45 0 -87 18
t-74 51.5t-51 81t-19 107.5q0 55 16 103.5t46 84.5t72 57t94 21q26 0 59.5 -9t63 -31.5t49.5 -61t20 -98.5q0 -10 -4 -22t-22 -12h-300q-3 -66 11.5 -110t39.5 -70.5t56 -37.5t60 -11q10 0 26 2t35 9.5t40.5 22t42.5 40.5z" />
    <glyph glyph-name="eacute" unicode="&#xe9;" horiz-adv-x="481" 
d="M196 565l-44 22l77 181q4 8 10 14t15 1l62 -30q8 -3 7.5 -11.5t-5.5 -14.5zM339 328q21 0 27.5 1t6.5 10q0 34 -11.5 56t-28 35t-35 17.5t-33.5 4.5q-17 0 -36.5 -6t-37.5 -20.5t-32.5 -38t-20.5 -59.5h201zM476 90q-29 -45 -81 -76.5t-124 -31.5q-45 0 -87 18t-74 51.5
t-51 81t-19 107.5q0 55 16 103.5t46 84.5t72 57t94 21q26 0 59.5 -9t63 -31.5t49.5 -61t20 -98.5q0 -10 -4 -22t-22 -12h-300q-3 -66 11.5 -110t39.5 -70.5t56 -37.5t60 -11q10 0 26 2t35 9.5t40.5 22t42.5 40.5z" />
    <glyph glyph-name="ecircumflex" unicode="&#xea;" 
d="M407 564h-67l-95 102l-94 -102h-67l145 182h34zM339 328q21 0 27.5 1t6.5 10q0 34 -11.5 56t-28 35t-35 17.5t-33.5 4.5q-17 0 -36.5 -6t-37.5 -20.5t-32.5 -38t-20.5 -59.5h201zM476 90q-29 -45 -81 -76.5t-124 -31.5q-45 0 -87 18t-74 51.5t-51 81t-19 107.5
q0 55 16 103.5t46 84.5t72 57t94 21q26 0 59.5 -9t63 -31.5t49.5 -61t20 -98.5q0 -10 -4 -22t-22 -12h-300q-3 -66 11.5 -110t39.5 -70.5t56 -37.5t60 -11q10 0 26 2t35 9.5t40.5 22t42.5 40.5z" />
    <glyph glyph-name="edieresis" unicode="&#xeb;" 
d="M350 555q-23 0 -38.5 15.5t-15.5 38.5q0 22 15.5 38t38.5 16q22 0 37.5 -16t15.5 -38q0 -23 -15.5 -38.5t-37.5 -15.5zM130 555q-23 0 -38 15.5t-15 38.5q0 22 15 38t38 16t38.5 -16t15.5 -38q0 -23 -15.5 -38.5t-38.5 -15.5zM339 328q21 0 27.5 1t6.5 10q0 34 -11.5 56
t-28 35t-35 17.5t-33.5 4.5q-17 0 -36.5 -6t-37.5 -20.5t-32.5 -38t-20.5 -59.5h201zM476 90q-29 -45 -81 -76.5t-124 -31.5q-45 0 -87 18t-74 51.5t-51 81t-19 107.5q0 55 16 103.5t46 84.5t72 57t94 21q26 0 59.5 -9t63 -31.5t49.5 -61t20 -98.5q0 -10 -4 -22t-22 -12
h-300q-3 -66 11.5 -110t39.5 -70.5t56 -37.5t60 -11q10 0 26 2t35 9.5t40.5 22t42.5 40.5z" />
    <glyph glyph-name="igrave" unicode="&#xec;" horiz-adv-x="267" 
d="M220 568l-43 -23l-123 163q-5 5 -5.5 13.5t7.5 12.5l62 30q9 4 15.5 -2t9.5 -14zM177 0h-87v480h87v-480z" />
    <glyph glyph-name="iacute" unicode="&#xed;" horiz-adv-x="267" 
d="M90 547l-44 23l77 180q4 8 10 14.5t15 1.5l63 -30q8 -3 7.5 -11.5t-5.5 -14.5zM177 0h-87v480h87v-480z" />
    <glyph glyph-name="icircumflex" unicode="&#xee;" horiz-adv-x="278" 
d="M275 544h-67l-69 102l-69 -102h-67l119 182h35zM184 0h-86v480h86v-480z" />
    <glyph glyph-name="idieresis" unicode="&#xef;" horiz-adv-x="294" 
d="M227 555q-23 0 -38.5 15.5t-15.5 38.5q0 22 15.5 38t38.5 16q22 0 37.5 -16t15.5 -38q0 -23 -15.5 -38.5t-37.5 -15.5zM68 555q-23 0 -38 15.5t-15 38.5q0 22 15 38t38 16t38.5 -16t15.5 -38q0 -23 -15.5 -38.5t-38.5 -15.5zM191 0h-86v480h86v-480z" />
    <glyph glyph-name="eth" unicode="&#xf0;" horiz-adv-x="553" 
d="M326 440q-45 -9 -80 -29t-58.5 -48t-36 -63t-12.5 -72q0 -92 38.5 -138.5t99.5 -46.5q63 0 100 51t37 134q0 35 -10.5 69t-25 62.5t-29 50t-23.5 30.5zM290 486q-24 29 -50.5 60.5t-52.5 63.5l-76 -48l-32 43l73 46q-14 16 -29 31.5t-29 31.5l43 32q15 -14 32 -29.5
t35 -32.5l78 50l32 -44l-69 -44l50 -50t47 -49t40.5 -45t31.5 -37q15 -20 31.5 -44.5t30 -53.5t22 -62.5t8.5 -70.5q0 -49 -16 -93.5t-46 -78t-72 -53.5t-94 -20q-53 0 -95.5 18.5t-72.5 50.5t-46.5 75t-16.5 93q0 40 15 81.5t45.5 77.5t76 63t106.5 38z" />
    <glyph glyph-name="ntilde" unicode="&#xf1;" horiz-adv-x="581" 
d="M465 679q-5 -51 -31 -83.5t-75 -32.5q-25 0 -45 7.5t-38 16t-34 16t-32 7.5q-13 0 -24 -8t-24 -39h-45q3 21 11 41.5t20.5 37t31 27t44.5 10.5q19 0 39 -7.5t39 -16t36.5 -16t32.5 -7.5q19 0 29 9.5t18 37.5h47zM495 0h-86v333q0 30 -8.5 50t-22.5 32.5t-31.5 18
t-35.5 5.5q-29 0 -52.5 -12t-41.5 -29t-29.5 -35t-15.5 -31v-332h-86v495h85v-91h1q22 36 47.5 56.5t49.5 30.5t44.5 12.5t32.5 2.5q27 0 53.5 -9t48 -28t34.5 -49t13 -72v-348z" />
    <glyph glyph-name="ograve" unicode="&#xf2;" horiz-adv-x="551" 
d="M363 582l-44 -22l-123 162q-5 6 -5.5 14.5t7.5 11.5l63 30q9 5 15 -1t10 -14zM277 -11q-53 0 -96.5 21t-74.5 56.5t-48.5 82.5t-17.5 99t17.5 99t48.5 82t74.5 56t96.5 21q52 0 95.5 -21t75 -56t48.5 -82t17 -99t-17 -99t-48.5 -82.5t-75 -56.5t-95.5 -21zM277 43
q30 0 56.5 13.5t46 39.5t31 64t11.5 88q0 49 -11.5 87.5t-31 64t-46 39t-56.5 13.5t-57 -13.5t-46.5 -39t-31 -64t-11.5 -87.5q0 -50 11.5 -88t31 -64t46.5 -39.5t57 -13.5z" />
    <glyph glyph-name="oacute" unicode="&#xf3;" horiz-adv-x="551" 
d="M233 565l-44 22l77 181q4 8 10 14t15 1l62 -30q8 -3 7.5 -11.5t-5.5 -14.5zM277 -11q-53 0 -96.5 21t-74.5 56.5t-48.5 82.5t-17.5 99t17.5 99t48.5 82t74.5 56t96.5 21q52 0 95.5 -21t75 -56t48.5 -82t17 -99t-17 -99t-48.5 -82.5t-75 -56.5t-95.5 -21zM277 43
q30 0 56.5 13.5t46 39.5t31 64t11.5 88q0 49 -11.5 87.5t-31 64t-46 39t-56.5 13.5t-57 -13.5t-46.5 -39t-31 -64t-11.5 -87.5q0 -50 11.5 -88t31 -64t46.5 -39.5t57 -13.5z" />
    <glyph glyph-name="ocircumflex" unicode="&#xf4;" horiz-adv-x="551" 
d="M437 547h-67l-94 102l-95 -102h-67l145 182h34zM277 -11q-53 0 -96.5 21t-74.5 56.5t-48.5 82.5t-17.5 99t17.5 99t48.5 82t74.5 56t96.5 21q52 0 95.5 -21t75 -56t48.5 -82t17 -99t-17 -99t-48.5 -82.5t-75 -56.5t-95.5 -21zM277 43q30 0 56.5 13.5t46 39.5t31 64
t11.5 88q0 49 -11.5 87.5t-31 64t-46 39t-56.5 13.5t-57 -13.5t-46.5 -39t-31 -64t-11.5 -87.5q0 -50 11.5 -88t31 -64t46.5 -39.5t57 -13.5z" />
    <glyph glyph-name="otilde" unicode="&#xf5;" horiz-adv-x="551" 
d="M450 679q-6 -51 -31.5 -83.5t-74.5 -32.5q-25 0 -45 7.5t-38 16t-34.5 16t-32.5 7.5q-12 0 -23.5 -8t-23.5 -39h-45q3 21 11 41.5t20.5 37t31 27t44.5 10.5q19 0 39 -7.5t38.5 -16t36 -16t32.5 -7.5q20 0 30 9.5t18 37.5h47zM277 -11q-53 0 -96.5 21t-74.5 56.5
t-48.5 82.5t-17.5 99t17.5 99t48.5 82t74.5 56t96.5 21q52 0 95.5 -21t75 -56t48.5 -82t17 -99t-17 -99t-48.5 -82.5t-75 -56.5t-95.5 -21zM277 43q30 0 56.5 13.5t46 39.5t31 64t11.5 88q0 49 -11.5 87.5t-31 64t-46 39t-56.5 13.5t-57 -13.5t-46.5 -39t-31 -64
t-11.5 -87.5q0 -50 11.5 -88t31 -64t46.5 -39.5t57 -13.5z" />
    <glyph glyph-name="odieresis" unicode="&#xf6;" horiz-adv-x="551" 
d="M384 555q-23 0 -38.5 15.5t-15.5 38.5q0 22 15.5 38t38.5 16q22 0 37.5 -16t15.5 -38q0 -23 -15.5 -38.5t-37.5 -15.5zM167 555q-23 0 -38.5 15.5t-15.5 38.5q0 22 15.5 38t38.5 16t38.5 -16t15.5 -38q0 -23 -15.5 -38.5t-38.5 -15.5zM277 -11q-53 0 -96.5 21t-74.5 56.5
t-48.5 82.5t-17.5 99t17.5 99t48.5 82t74.5 56t96.5 21q52 0 95.5 -21t75 -56t48.5 -82t17 -99t-17 -99t-48.5 -82.5t-75 -56.5t-95.5 -21zM277 43q30 0 56.5 13.5t46 39.5t31 64t11.5 88q0 49 -11.5 87.5t-31 64t-46 39t-56.5 13.5t-57 -13.5t-46.5 -39t-31 -64
t-11.5 -87.5q0 -50 11.5 -88t31 -64t46.5 -39.5t57 -13.5z" />
    <glyph glyph-name="divide" unicode="&#xf7;" horiz-adv-x="419" 
d="M397 216h-376v50h376v-50zM212 -10q-23 0 -38.5 15.5t-15.5 38.5t15.5 38.5t38.5 15.5t39 -15.5t16 -38.5t-16 -38.5t-39 -15.5zM267 436q0 -23 -16 -38.5t-39 -15.5t-38.5 15.5t-15.5 38.5t15.5 39t38.5 16t39 -16t16 -39z" />
    <glyph glyph-name="oslash" unicode="&#xf8;" horiz-adv-x="551" 
d="M344 428q-15 13 -32.5 18.5t-34.5 5.5q-30 0 -57 -13.5t-46.5 -39t-31 -64t-11.5 -87.5q0 -35 6.5 -64.5t17.5 -53.5zM185 82q37 -39 92 -39q30 0 55.5 13t44.5 37t30.5 59t13.5 79q1 14 0.5 27.5t-2.5 27.5q-9 62 -41 100zM74 -90h-62l97 152q-33 36 -51 84t-18 102
q0 52 17.5 99t48.5 82t74.5 56t96.5 21q55 0 102 -25l64 102h63l-84 -131q43 -35 67 -88.5t24 -115.5q0 -52 -17 -99t-48.5 -82.5t-75 -56.5t-95.5 -21q-37 0 -69 10t-58 29z" />
    <glyph glyph-name="ugrave" unicode="&#xf9;" horiz-adv-x="581" 
d="M377 572l-44 -22l-122 162q-5 6 -5.5 14.5t7.5 11.5l62 30q9 5 15.5 -1t9.5 -14zM495 0h-85v91h-1q-22 -36 -47.5 -56.5t-49.5 -30.5t-44.5 -12.5t-32.5 -2.5q-27 0 -53.5 9t-47.5 28t-34.5 49t-13.5 72v348h86v-333q0 -30 8.5 -50t22.5 -32.5t31.5 -18t35.5 -5.5
q28 0 52 12t42 29t29.5 35t15.5 31v332h86v-495z" />
    <glyph glyph-name="uacute" unicode="&#xfa;" horiz-adv-x="581" 
d="M247 555l-44 22l77 181q4 8 10 14t15 1l62 -30q8 -3 7.5 -11.5t-5.5 -14.5zM495 0h-85v91h-1q-22 -36 -47.5 -56.5t-49.5 -30.5t-44.5 -12.5t-32.5 -2.5q-27 0 -53.5 9t-47.5 28t-34.5 49t-13.5 72v348h86v-333q0 -30 8.5 -50t22.5 -32.5t31.5 -18t35.5 -5.5q28 0 52 12
t42 29t29.5 35t15.5 31v332h86v-495z" />
    <glyph glyph-name="ucircumflex" unicode="&#xfb;" horiz-adv-x="581" 
d="M455 552h-67l-94 101l-95 -101h-67l145 181h34zM495 0h-85v91h-1q-22 -36 -47.5 -56.5t-49.5 -30.5t-44.5 -12.5t-32.5 -2.5q-27 0 -53.5 9t-47.5 28t-34.5 49t-13.5 72v348h86v-333q0 -30 8.5 -50t22.5 -32.5t31.5 -18t35.5 -5.5q28 0 52 12t42 29t29.5 35t15.5 31v332
h86v-495z" />
    <glyph glyph-name="udieresis" unicode="&#xfc;" horiz-adv-x="581" 
d="M399 552q-23 0 -38.5 16t-15.5 38q0 23 15.5 38.5t38.5 15.5q22 0 37.5 -15.5t15.5 -38.5q0 -22 -15.5 -38t-37.5 -16zM182 552q-23 0 -38 16t-15 38q0 23 15 38.5t38 15.5t38.5 -15.5t15.5 -38.5q0 -22 -15.5 -38t-38.5 -16zM495 0h-85v91h-1q-22 -36 -47.5 -56.5
t-49.5 -30.5t-44.5 -12.5t-32.5 -2.5q-27 0 -53.5 9t-47.5 28t-34.5 49t-13.5 72v348h86v-333q0 -30 8.5 -50t22.5 -32.5t31.5 -18t35.5 -5.5q28 0 52 12t42 29t29.5 35t15.5 31v332h86v-495z" />
    <glyph glyph-name="yacute" unicode="&#xfd;" horiz-adv-x="443" 
d="M181 555l-43 22l77 181q4 8 10 14t15 1l62 -30q8 -3 7.5 -11.5t-5.5 -14.5zM24 -227l44 68h5q8 -12 19 -16.5t22 -4.5q10 0 21 5.5t23 24.5t25.5 55t29.5 97l-203 489v4h91l152 -376h1l112 376h67l-178 -581q-15 -50 -30.5 -83.5t-33.5 -53.5t-39 -29t-46 -9
q-24 0 -42.5 7.5t-30.5 18.5z" />
    <glyph glyph-name="thorn" unicode="&#xfe;" horiz-adv-x="479" 
d="M173 40q81 7 128 56t47 146t-47 148t-128 57v-407zM173 -250h-87v995h87v-247q57 0 106 -20.5t84.5 -55.5t55.5 -81.5t20 -98.5t-19.5 -98t-55 -80.5t-84.5 -54.5t-107 -20v-239z" />
    <glyph glyph-name="ydieresis" unicode="&#xff;" horiz-adv-x="443" 
d="M331 552q-23 0 -38.5 16t-15.5 38q0 23 15.5 38.5t38.5 15.5q22 0 37.5 -15.5t15.5 -38.5q0 -22 -15.5 -38t-37.5 -16zM114 552q-23 0 -38.5 16t-15.5 38q0 23 15.5 38.5t38.5 15.5t38.5 -15.5t15.5 -38.5q0 -22 -15.5 -38t-38.5 -16zM24 -227l44 68h5q8 -12 19 -16.5
t22 -4.5q10 0 21 5.5t23 24.5t25.5 55t29.5 97l-203 489v4h91l152 -376h1l112 376h67l-178 -581q-15 -50 -30.5 -83.5t-33.5 -53.5t-39 -29t-46 -9q-24 0 -42.5 7.5t-30.5 18.5z" />
    <glyph glyph-name="OE" unicode="&#x152;" horiz-adv-x="980" 
d="M531 476q0 37 -2 65t-8 51q-18 26 -57 32.5t-102 6.5q-48 0 -89 -20t-71 -57.5t-47 -90.5t-17 -119q0 -65 17 -118.5t47 -91.5t71 -59t89 -21q45 0 75.5 3t50 14.5t30 34.5t13.5 62v308zM956 0h-376q-35 0 -61.5 -1.5t-51 -4t-49.5 -4t-56 -1.5q-65 0 -123.5 25.5
t-102.5 72t-70 112t-26 145.5t26 145t70 111t102.5 71t123.5 25q31 0 56 -1.5t49 -4t50.5 -4t61.5 -1.5h350l3 -63h-309v-231h270v-62h-270v-266h336z" />
    <glyph glyph-name="oe" unicode="&#x153;" horiz-adv-x="870" 
d="M716 328q21 0 28 2t7 11q0 34 -11 55.5t-27 34t-34 17t-33 4.5q-17 0 -36.5 -6t-37.5 -20.5t-32.5 -38t-20.5 -59.5h197zM277 43q30 0 56.5 13.5t46 39.5t31 64t11.5 88q0 49 -11.5 87.5t-31 64t-46 39t-56.5 13.5t-57 -13.5t-46.5 -39t-31 -64t-11.5 -87.5
q0 -50 11.5 -88t31 -64t46.5 -39.5t57 -13.5zM854 90q-27 -45 -78.5 -76.5t-123.5 -31.5q-56 0 -106 28t-81 82q-31 -47 -79 -75t-109 -28q-53 0 -96.5 21t-74.5 56.5t-48.5 82.5t-17.5 99t17.5 99t48.5 82t74.5 56t96.5 21q62 0 110 -28.5t79 -76.5q29 48 75.5 76.5
t107.5 28.5q26 0 59 -8.5t61.5 -30t48 -59.5t19.5 -98q0 -10 -4 -24t-22 -14h-296q-3 -66 12 -109t40.5 -69t56.5 -36.5t61 -10.5q8 0 22.5 1.5t32.5 8.5t39.5 21t42.5 39z" />
    <glyph glyph-name="Scaron" unicode="&#x160;" horiz-adv-x="513" 
d="M16 81l46 70h5q4 -5 16.5 -20.5t33.5 -32.5t51.5 -30.5t71.5 -13.5q25 0 50 4.5t45.5 16t34.5 31t17 49.5q5 51 -19.5 80.5t-63.5 49t-85.5 34.5t-87 38t-67.5 59.5t-27 99.5q0 23 11.5 54t37.5 59t69 47.5t105 19.5q65 0 112 -22t80 -55l11 -11l-45 -70h-5q-4 6 -15 22
t-30 32t-46 28.5t-63 12.5q-56 0 -92.5 -28.5t-36.5 -78.5q0 -45 26 -71t64.5 -44t84 -33t84 -38t64.5 -59.5t26 -96.5q0 -45 -18 -81.5t-50.5 -61.5t-76.5 -38.5t-95 -13.5q-72 0 -125.5 24t-86.5 57zM254 754h-35l-145 182h67l95 -102l94 102h67z" />
    <glyph glyph-name="scaron" unicode="&#x161;" horiz-adv-x="400" 
d="M57 108h5q20 -28 56 -48t75 -20q10 0 26 3.5t31 11.5t26.5 22.5t11.5 36.5q1 37 -18 58.5t-47 35.5t-61 25t-61.5 27t-47.5 41t-19 68q0 30 13.5 55t36.5 43t54 28.5t66 10.5q44 0 80 -13t68 -36l-39 -70h-5q-18 27 -46.5 47.5t-65.5 20.5q-38 0 -61.5 -19.5t-23.5 -51.5
q0 -31 19 -49t48 -31t62.5 -24.5t62 -29.5t47.5 -45t19 -71q0 -27 -10.5 -53.5t-33 -46.5t-57.5 -32.5t-84 -12.5q-45 0 -87 13t-79 36zM214 554h-35l-144 182h67l94 -102l95 102h67z" />
    <glyph glyph-name="Ydieresis" unicode="&#x178;" horiz-adv-x="545" 
d="M232 0v233q0 20 -1.5 41.5t-11.5 38.5l-142 253q-9 15 -20 34.5t-21 36.5t-17.5 29t-8.5 14v5h103l171 -311l176 311h75v-5q-4 -6 -21 -35.5t-48 -83.5l-131 -230q-8 -15 -10 -44t-2 -51v-236h-91zM380 717q-23 0 -38 15.5t-15 38.5q0 22 15 38t38 16t38.5 -16t15.5 -38
q0 -23 -15.5 -38.5t-38.5 -15.5zM163 717q-22 0 -37.5 15.5t-15.5 38.5q0 22 15.5 38t37.5 16q23 0 38.5 -16t15.5 -38q0 -23 -15.5 -38.5t-38.5 -15.5z" />
    <glyph glyph-name="Zcaron" unicode="&#x17d;" horiz-adv-x="544" 
d="M271 754h-35l-145 182h67l95 -102l94 102h67zM18 0l-9 22l367 600h-331l10 63h441l10 -21l-367 -601h387l-10 -63h-498z" />
    <glyph glyph-name="zcaron" unicode="&#x17e;" horiz-adv-x="432" 
d="M407 0h-395l-4 9l283 431h-257l11 55h369l3 -8l-280 -429h282zM241 554h-34l-145 182h67l95 -102l94 102h67z" />
    <glyph glyph-name="florin" unicode="&#x192;" horiz-adv-x="364" 
d="M-149 -226l55 64h5q10 -20 24 -24.5t20 -3.5q22 2 36.5 17.5t24 39.5t15.5 54.5t11 63.5q3 20 6.5 40t8.5 43l80 372h-99l14 55h96l4 16q13 59 39.5 104t62 75.5t77 46t83.5 17.5q15 1 33 0q20 -2 39.5 -10t38.5 -23l-56 -76h-5q-17 26 -41 33.5t-42 7.5q-12 0 -31.5 -5
t-40 -22.5t-39.5 -50t-30 -87.5l-4 -15q0 -3 -0.5 -6t-0.5 -5h145l-14 -55h-143l-81 -381q-15 -66 -31.5 -124.5t-40.5 -102t-57.5 -68.5t-82.5 -25q-19 0 -39.5 7.5t-30.5 18.5z" />
    <glyph glyph-name="circumflex" unicode="&#x2c6;" horiz-adv-x="425" 
d="M379 499h-67l-95 101l-94 -101h-67l145 182h34z" />
    <glyph glyph-name="tilde" unicode="&#x2dc;" horiz-adv-x="348" 
d="M348 639q-6 -51 -32 -83.5t-74 -32.5q-25 0 -45 7.5t-38 16t-34.5 16t-32.5 7.5q-12 0 -23.5 -8t-23.5 -39h-46q3 21 11 41.5t21 37t31.5 27t44.5 10.5q19 0 38.5 -7.5t38.5 -16t36.5 -16t32.5 -7.5q20 0 30 9.5t18 37.5h47z" />
    <glyph glyph-name="endash" unicode="&#x2013;" horiz-adv-x="506" 
d="M493 215h-477v51h477v-51z" />
    <glyph glyph-name="emdash" unicode="&#x2014;" horiz-adv-x="1042" 
d="M1025 215h-1009v51h1009v-51z" />
    <glyph glyph-name="quoteleft" unicode="&#x2018;" horiz-adv-x="257" 
d="M193 703q-35 -27 -52.5 -53.5t-17.5 -46.5q0 -28 27 -49q5 -5 10 -11t7 -16q2 -9 0.5 -17t-5.5 -16q-3 -14 -15 -23.5t-28 -9.5q-20 0 -34 10t-23 25t-13 32.5t-4 32.5q0 52 35 95t91 76z" />
    <glyph glyph-name="quoteright" unicode="&#x2019;" horiz-adv-x="278" 
d="M62 490q35 26 52.5 53t17.5 47q0 13 -5.5 22t-13 17t-14.5 16.5t-10 19.5q-3 12 0 24t10 21t16.5 15t20.5 6q19 0 33 -10t23.5 -25t14 -32.5t4.5 -32.5q0 -51 -35 -94.5t-91 -75.5z" />
    <glyph glyph-name="quotesinglbase" unicode="&#x201a;" horiz-adv-x="295" 
d="M62 -162q35 24 53 51t18 47q0 15 -8 28t-17 25t-15.5 24.5t-3.5 28.5q4 17 18 27.5t31 10.5t30 -8t22 -20t14 -26t6 -26q0 -6 0.5 -12t-0.5 -12q-2 -50 -36.5 -92.5t-88.5 -74.5z" />
    <glyph glyph-name="quotedblleft" unicode="&#x201c;" horiz-adv-x="454" 
d="M211 703q-35 -27 -52.5 -53.5t-17.5 -46.5q0 -12 5.5 -20.5t13 -17l15 -17t10.5 -20.5q3 -11 0.5 -23t-9.5 -22t-17 -16t-22 -6q-20 0 -34 10t-23 25t-13.5 33t-4.5 33q0 51 35 94t92 76zM384 703q-35 -27 -52 -53.5t-17 -46.5q0 -12 5.5 -20.5t13 -17t14.5 -17t10 -20.5
q3 -11 0.5 -23t-8.5 -22t-16 -16t-23 -6q-20 0 -34 10t-23 25t-13.5 33t-4.5 33q0 51 35 94t91 76z" />
    <glyph glyph-name="quotedblright" unicode="&#x201d;" horiz-adv-x="461" 
d="M236 490q35 26 52.5 53t17.5 47q0 12 -6 20.5t-13.5 17t-14.5 17t-10 20.5q-3 11 0 23t9.5 21.5t16.5 15.5t22 6q19 0 33 -10t23 -25t13.5 -32.5t4.5 -32.5q0 -51 -34.5 -94.5t-91.5 -75.5zM62 490q35 26 52.5 53t17.5 47q0 12 -5.5 20.5t-13 16.5t-14.5 17t-10 21
q-3 11 -0.5 22.5t9 21.5t16.5 16t22 6q19 0 33 -10t23.5 -25t14 -32.5t4.5 -32.5q0 -51 -35 -94.5t-91 -75.5z" />
    <glyph glyph-name="quotedblbase" unicode="&#x201e;" horiz-adv-x="441" 
d="M241 -162q35 27 52.5 53.5t17.5 46.5q0 13 -6 22.5t-14 18.5t-15.5 18t-10.5 20q-5 25 11.5 44t38.5 19q19 0 33 -10t23.5 -25t14 -33t4.5 -33q0 -51 -35 -94t-91 -76zM62 -162q35 27 52.5 53.5t17.5 46.5q0 17 -10.5 29.5t-22.5 34.5q-9 12 -10 25.5t4 25.5t16.5 19.5
t26.5 7.5q19 0 33 -10t23.5 -25t14 -33t4.5 -33q0 -51 -35 -94t-91 -76z" />
    <glyph glyph-name="dagger" unicode="&#x2020;" horiz-adv-x="490" 
d="M288 432v-496h-87q0 125 0.5 248t0.5 248h-175l-10 18v19l10 19h175v195h86v-195h175l10 -19v-19l-10 -18h-175z" />
    <glyph glyph-name="daggerdbl" unicode="&#x2021;" horiz-adv-x="489" 
d="M288 178v-269h-86v269h-176l-10 18v20l10 18h176v198h-175l-10 18v19l10 19h175v195h86v-195h175l10 -19v-19l-10 -18h-175v-198h174l10 -18v-20l-10 -18h-174z" />
    <glyph glyph-name="bullet" unicode="&#x2022;" horiz-adv-x="510" 
d="M346 240q0 -37 -25.5 -62.5t-62.5 -25.5t-62.5 25.5t-25.5 62.5t25.5 62.5t62.5 25.5t62.5 -25.5t25.5 -62.5z" />
    <glyph glyph-name="ellipsis" unicode="&#x2026;" horiz-adv-x="930" 
d="M819 -12q-23 0 -38 16t-15 38q0 23 15 38.5t38 15.5t38.5 -15.5t15.5 -38.5q0 -22 -15.5 -38t-38.5 -16zM471 -12q-22 0 -38 16t-16 38q0 23 16 38.5t38 15.5q23 0 38.5 -15.5t15.5 -38.5q0 -22 -15.5 -38t-38.5 -16zM131 -12q-22 0 -37.5 16t-15.5 38q0 23 15.5 38.5
t37.5 15.5q23 0 38.5 -15.5t15.5 -38.5q0 -22 -15.5 -38t-38.5 -16z" />
    <glyph glyph-name="perthousand" unicode="&#x2030;" horiz-adv-x="965" 
d="M798 -18q-23 0 -46.5 10t-42.5 30.5t-31 50.5t-12 71q0 40 12 70.5t31 51t42.5 30.5t46.5 10q22 0 45.5 -10t42.5 -30.5t31 -51t12 -70.5q0 -41 -12 -71t-31 -50.5t-42.5 -30.5t-45.5 -10zM798 27q11 0 22 5.5t20 19t14.5 36t5.5 56.5q0 33 -5.5 55.5t-14.5 36t-20 19.5
t-22 6q-12 0 -23.5 -6t-20.5 -19.5t-14.5 -36t-5.5 -55.5q0 -34 5.5 -56.5t14.5 -36t20.5 -19t23.5 -5.5zM469 -18q-23 0 -46 10t-42 30.5t-31 50.5t-12 71q0 40 12 70.5t31 51t42 30.5t46 10t46.5 -10t42.5 -30.5t31 -51t12 -70.5q0 -41 -12 -71t-31 -50.5t-42.5 -30.5
t-46.5 -10zM469 27q12 0 23 5.5t20 19t14.5 36t5.5 56.5q0 33 -5.5 55.5t-14.5 36t-20 19.5t-23 6t-23 -6t-20 -19.5t-14.5 -36t-5.5 -55.5q0 -34 5.5 -56.5t14.5 -36t20 -19t23 -5.5zM97 -32h-61l510 783h63zM163 407q-23 0 -46.5 10t-42 30.5t-30.5 50.5t-12 71
q0 40 12 70t30.5 50.5t42 30.5t46.5 10t46.5 -10t42 -30.5t30.5 -50.5t12 -70q0 -41 -12 -71t-30.5 -50.5t-42 -30.5t-46.5 -10zM163 452q12 0 23 5.5t20 19t14.5 36t5.5 56.5q0 33 -5.5 55.5t-14.5 36t-20 19t-23 5.5t-23.5 -5.5t-20.5 -19t-14.5 -36t-5.5 -55.5
q0 -34 5.5 -56.5t14.5 -36t20.5 -19t23.5 -5.5z" />
    <glyph glyph-name="guilsinglleft" unicode="&#x2039;" horiz-adv-x="341" 
d="M277 16h-48l-148 239l148 223h49l-107 -223z" />
    <glyph glyph-name="guilsinglright" unicode="&#x203a;" horiz-adv-x="321" 
d="M123 16h-48l105 239l-106 223h49l147 -223z" />
    <glyph glyph-name="Euro" unicode="&#x20ac;" horiz-adv-x="679" 
d="M672 180q-39 -97 -104.5 -143.5t-160.5 -46.5q-56 0 -105 17t-87.5 49.5t-64.5 79t-37 106.5h-111l10 48h96q-1 8 -1 16.5v17.5v17t1 17h-97l9 48h95q13 58 41.5 106t68.5 82t90 53t105 19q68 0 119 -22.5t89 -60.5l10 -10l-48 -60h-5q-4 4 -15 19t-31 30.5t-50 28
t-72 12.5q-36 0 -70 -14t-61.5 -39.5t-48 -62t-30.5 -81.5h225l-10 -48h-222q-1 -8 -1 -17v-17v-17.5t1 -16.5h215l-10 -48h-197q20 -85 75 -134.5t133 -49.5q24 0 52 7t55.5 23.5t53.5 44.5t47 71z" />
    <glyph glyph-name="trademark" unicode="&#x2122;" horiz-adv-x="909" 
d="M166 314v337h-136l9 46h323l9 -46h-136v-337h-69zM858 314h-68v256l-143 -256h-24l-140 268v-268h-51v321q0 19 -0.5 38t-2.5 21v3h78l138 -256l146 256h68v-3l-0.5 -8t-0.5 -17.5v-19.5v-15v-320z" />
  </font>
</defs>
</svg>
